<svg width="21" height="16" viewBox="0 0 21 16" fill="none" xmlns="http://www.w3.org/2000/svg">
    <path fill-rule="evenodd" clip-rule="evenodd"
        d="M6.38023 0C5.70613 0 5.07738 0.339575 4.70774 0.903285L0.773312 6.90329C0.33663 7.56923 0.33663 8.43077 0.773312 9.09671L4.70774 15.0967C5.07738 15.6604 5.70613 16 6.38023 16H18.0542C19.1587 16 20.0542 15.1046 20.0542 14V2C20.0542 0.895431 19.1587 0 18.0542 0H6.38023ZM15.8781 5.33129L13.2094 7.99999L15.8781 10.6685C16.0787 10.8693 16.113 11.1602 15.9546 11.3185L15.3728 11.9005C15.2145 12.0588 14.9237 12.0245 14.7227 11.8235L12.0543 9.15508L9.38553 11.8239C9.18494 12.0245 8.89381 12.0588 8.73549 11.9005L8.15363 11.3185C7.9953 11.1602 8.03 10.8693 8.2306 10.6687L10.8992 7.99997L8.2306 5.33129C8.0296 5.13069 7.99531 4.83956 8.15363 4.68143L8.73549 4.09958C8.89381 3.94105 9.18494 3.97555 9.38553 4.17635L12.0543 6.84491L14.7227 4.17636C14.9237 3.97575 15.2145 3.94107 15.3728 4.09939L15.9546 4.68124C16.113 4.83956 16.0787 5.13069 15.8781 5.33129Z"
        fill="#0C0C06" />
</svg>
