<svg class="icon" viewBox="0 0 1024 1024" version="1.1" xmlns="http://www.w3.org/2000/svg"
    width="255" height="255">
    <path
        d="M472.32 499.2c12.373333-16.64 34.56-23.893333 54.186667-15.786667 7.253333 2.986667 13.653333 7.68 18.346666 14.08 9.386667 11.946667 10.666667 25.173333 9.386667 36.266667-2.133333 14.08-10.666667 26.88-23.04 33.706667 0 0-207.786667 125.866667-216.32 114.773333s157.44-183.04 157.44-183.04zM938.666667 426.666667c0 106.666667-42.666667 128-64 128-9.813333 0-18.773333-4.266667-26.453334-11.093334-20.48 141.653333-100.693333 226.56-227.413333 255.573334 4.693333 18.773333 20.48 32.853333 40.533333 32.853333h24.746667c9.386667 0 17.493333 6.4 20.48 15.36 7.253333 22.186667 28.16 43.52 43.52 56.32 10.666667 8.96 10.24 25.173333-1.28 33.28-14.506667 10.24-38.4 20.906667-76.373333 22.613333a21.376 21.376 0 0 1-19.2-9.386666c-5.546667-8.533333-13.226667-23.893333-13.226667-43.093334 0-12.8 1.706667-24.32 3.84-34.133333-33.28-6.826667-59.306667-33.28-66.133333-66.56-20.906667 2.56-42.666667 4.266667-65.706667 4.266667-37.546667 0-72.533333-3.84-104.533333-10.666667-0.853333 3.413333-2.133333 6.826667-2.133334 10.666667 0 23.466667 19.2 42.666667 42.666667 42.666666h24.746667c9.386667 0 17.493333 6.4 20.48 15.36 7.253333 22.186667 28.16 43.52 43.52 56.32 10.666667 8.96 10.24 25.173333-1.28 33.28-14.506667 10.24-38.4 20.906667-76.373334 22.613334a21.376 21.376 0 0 1-19.2-9.386667c-5.546667-8.533333-13.226667-23.893333-13.226666-43.093333 0-12.8 1.706667-24.32 3.84-34.133334-38.4-8.106667-67.84-42.666667-67.84-83.626666 0-7.68 1.28-15.36 3.413333-22.613334-104.96-36.693333-171.946667-118.613333-190.293333-244.906666-7.68 7.253333-16.213333 11.52-26.453334 11.52C128 554.666667 85.333333 533.333333 85.333333 426.666667c0-96.853333 72.533333-192 128-192 18.346667 0 20.906667 20.906667 21.333334 36.266666a340.864 340.864 0 0 1 236.8-140.373333c8.533333-40.96 46.08-66.56 83.2-66.56v42.666667s14.08-21.333333 42.666666-21.333334c28.586667 0 42.666667 21.333333 42.666667 21.333334-20.906667 0-36.266667 14.933333-40.96 32.853333 77.653333 20.48 144.64 67.84 190.293333 131.413333 0.426667-15.36 2.986667-36.266667 21.333334-36.266666 55.466667 0 128 95.146667 128 192zM213.333333 469.333333c0 34.56 4.266667 65.28 10.666667 94.293334 7.68-29.44 19.626667-56.746667 35.413333-81.92a160.853333 160.853333 0 0 1-14.506666-65.706667A160.682667 160.682667 0 0 1 405.333333 256c40.96 0 78.506667 15.786667 106.666667 41.386667 28.16-25.6 65.706667-41.386667 106.666667-41.386667 88.32 0 160 71.68 160 160 0 23.466667-5.12 45.653333-14.506667 65.706667 15.786667 25.173333 28.16 52.906667 35.84 82.773333 6.4-29.013333 10.666667-60.16 10.666667-95.146667 0-164.693333-133.973333-298.666667-298.666667-298.666666s-298.666667 133.973333-298.666667 298.666666z m553.813334 183.04c0-4.266667 0.853333-8.106667 0.853333-12.373333 0-43.093333-11.093333-83.2-29.866667-118.613333-29.44 33.28-71.68 54.613333-119.466666 54.613333-11.52 0-23.04-1.28-33.706667-3.84 5.973333-9.813333 9.813333-20.906667 11.52-32.853333 0.426667-2.986667 0.426667-5.546667 0.853333-8.106667 7.253333 1.28 14.08 2.133333 21.333334 2.133333 64.853333 0 117.333333-52.48 117.333333-117.333333S683.52 298.666667 618.666667 298.666667c-28.586667 0-56.32 10.666667-78.08 30.72l-28.586667 25.6-28.586667-25.6C461.653333 309.333333 433.92 298.666667 405.333333 298.666667 340.48 298.666667 288 351.146667 288 416c0 57.173333 40.96 104.96 95.146667 115.2l-32.426667 35.413333c-25.6-9.386667-47.786667-25.173333-65.28-44.8A256.426667 256.426667 0 0 0 256 640c0 3.413333 0.426667 6.4 0.426667 10.24C304.213333 727.893333 389.973333 768 512 768c122.88 0 208.213333-38.826667 255.146667-115.626667zM682.666667 416c0 41.386667-28.586667 74.666667-64 74.666667S554.666667 457.386667 554.666667 416 583.253333 341.333333 618.666667 341.333333s64 33.28 64 74.666667z m-32-37.12c0-8.96-7.253333-16.213333-16.213334-16.213333s-15.786667 7.253333-15.786666 16.213333 7.253333 16.213333 16.213333 16.213333 15.786667-7.68 15.786667-16.213333zM469.333333 416c0 41.386667-28.586667 74.666667-64 74.666667S341.333333 457.386667 341.333333 416 369.92 341.333333 405.333333 341.333333s64 33.28 64 74.666667z m-32-37.12c0-8.96-7.253333-16.213333-16.213333-16.213333s-15.786667 7.253333-15.786667 16.213333 7.253333 16.213333 16.213334 16.213333 15.786667-7.68 15.786666-16.213333z"></path>
</svg>