<svg width="24" height="24" viewBox="0 0 25 25" fill="none" xmlns="http://www.w3.org/2000/svg">
    <path fill-rule="evenodd" clip-rule="evenodd"
        d="M5.35558 5.35258C5.55084 5.15731 5.86743 5.15731 6.06269 5.35258L12.0731 11.363L18.0835 5.35258C18.2788 5.15731 18.5953 5.15731 18.7906 5.35258L19.4977 6.05968C19.693 6.25495 19.693 6.57153 19.4977 6.76679L13.4873 12.7772L19.4977 18.7872C19.693 18.9824 19.693 19.299 19.4978 19.4943L18.7907 20.2014C18.5954 20.3967 18.2789 20.3967 18.0836 20.2014L12.0731 14.1914L6.0627 20.2014C5.86744 20.3967 5.55085 20.3967 5.3556 20.2014L4.64851 19.4943C4.45325 19.299 4.45326 18.9825 4.64853 18.7872L10.6589 12.7772L4.64848 6.76679C4.45321 6.57153 4.45321 6.25495 4.64848 6.05968L5.35558 5.35258Z"
        fill="#333333" />
</svg>
