<svg class="icon" viewBox="0 0 1024 1024" version="1.1" xmlns="http://www.w3.org/2000/svg"
    width="25" height="25">
    <path
        d="M751.888556 333.704245c-74.724889 0-135.518486-60.793598-135.518487-135.518487S677.163667 62.667272 751.888556 62.667272s135.518486 60.793598 135.518486 135.518486c-0.001023 74.725912-60.793598 135.518486-135.518486 135.518487z m0-219.871663c-46.512337 0-84.353177 37.84084-84.353177 84.353176s37.84084 84.353177 84.353177 84.353177 84.353177-37.84084 84.353176-84.353177-37.84084-84.353177-84.353176-84.353176zM234.921427 647.518486c-74.724889 0-135.518486-60.793598-135.518486-135.518486s60.793598-135.518486 135.518486-135.518486 135.518486 60.793598 135.518487 135.518486-60.793598 135.518486-135.518487 135.518486z m0-219.871663c-46.512337 0-84.353177 37.84084-84.353176 84.353177 0 46.51336 37.84084 84.353177 84.353176 84.353177s84.353177-37.84084 84.353177-84.353177-37.84084-84.353177-84.353177-84.353177zM749.920738 957.425745c-74.724889 0-135.517463-60.793598-135.517463-135.519509s60.792575-135.518486 135.517463-135.518487c74.724889 0 135.51951 60.792575 135.51951 135.518487s-60.794621 135.51951-135.51951 135.519509z m0-219.871663c-46.512337 0-84.352153 37.84084-84.352154 84.353177s37.84084 84.3542 84.352154 84.3542c46.512337 0 84.3542-37.84084 84.3542-84.3542s-37.841863-84.353177-84.3542-84.353177z"
        fill="#333333"></path>
    <path
        d="M619.216907 226.566132l27.977191 42.840714-307.509652 200.819748-27.977192-42.840714zM339.668073 544.841989l307.509653 200.819748-27.976169 42.839691-307.509652-200.819748z"
        fill="#333333"></path>
</svg>