<svg class="icon" viewBox="0 0 1024 1024" version="1.1" xmlns="http://www.w3.org/2000/svg"
    width="25" height="25">
    <path
        d="M886.4 279H765.5c-1.9-0.1-3.8-0.2-5.7-0.2H721V144c0-44.1-35.9-80-80-80H385.3c-44.1 0-80 35.9-80 80V278.8H266c-1.9 0-3.8 0.1-5.7 0.2H137.6c-22.1 0-40 17.9-40 40s17.9 40 40 40H186v521c0 44.1 35.9 80 80 80h493.8c44.1 0 80-35.9 80-80V359h46.7c22.1 0 40-17.9 40-40s-18-40-40.1-40zM385.3 144.1c0.1-0.1 0.1-0.1 0 0l255.6-0.1s0.1 0 0.1 0.1v134.4s0 0.1-0.1 0.1H385.4s-0.1 0-0.1-0.1V144.1z m374.5 735.8c0 0.1-0.1 0.1 0 0L266 880s-0.1 0-0.1-0.1V359h493.8v520.9z"
        fill="#333333"></path>
    <path
        d="M425.7 829.9c22.1 0 40-17.9 40-40V450.4c0-22.1-17.9-40-40-40s-40 17.9-40 40v339.5c0 22 17.9 40 40 40zM599.7 829.9c22.1 0 40-17.9 40-40V450.4c0-22.1-17.9-40-40-40s-40 17.9-40 40v339.5c0 22 17.9 40 40 40z"
        fill="#333333"></path>
</svg>