<svg class="icon" viewBox="0 0 1024 1024" version="1.1" xmlns="http://www.w3.org/2000/svg"
    width="256" height="256">
    <path
        d="M0.193422 925.809778a56.888889 56.888889 0 0 0 56.888889 56.888889h910.222222l7.168-0.455111a56.888889 56.888889 0 0 0-7.168-113.322667h-910.222222l-7.168 0.455111A56.888889 56.888889 0 0 0 0.193422 925.809778z m477.639111-258.161778a56.888889 56.888889 0 0 0 74.638223-5.006222l455.111111-455.111111 5.006222-5.916445a56.888889 56.888889 0 0 0-5.006222-74.638222l-5.916445-5.006222a56.888889 56.888889 0 0 0-74.638222 5.006222L512.193422 541.923556 97.359644 126.976l-5.916444-5.006222a56.888889 56.888889 0 0 0-74.638222 85.560889l455.111111 455.111111 5.916444 5.006222z"
        fill="#333333" />
</svg>