<svg width="16" height="16" viewBox="0 0 25 25" fill="none" xmlns="http://www.w3.org/2000/svg">
    <path
        d="M19.6553 10.877H20.6553C20.9205 10.877 21.1748 10.9823 21.3624 11.1698C21.5499 11.3574 21.6553 11.6117 21.6553 11.877V21.877C21.6553 22.1422 21.5499 22.3965 21.3624 22.5841C21.1748 22.7716 20.9205 22.877 20.6553 22.877H4.65527C4.39006 22.877 4.1357 22.7716 3.94817 22.5841C3.76063 22.3965 3.65527 22.1422 3.65527 21.877V11.877C3.65527 11.6117 3.76063 11.3574 3.94817 11.1698C4.1357 10.9823 4.39006 10.877 4.65527 10.877H5.65527V9.87695C5.65527 8.9577 5.83633 8.04745 6.18812 7.19817C6.5399 6.34889 7.05552 5.57722 7.70553 4.92721C8.35554 4.2772 9.12721 3.76158 9.97649 3.4098C10.8258 3.05801 11.736 2.87695 12.6553 2.87695C13.5745 2.87695 14.4848 3.05801 15.3341 3.4098C16.1833 3.76158 16.955 4.2772 17.605 4.92721C18.255 5.57722 18.7706 6.34889 19.1224 7.19817C19.4742 8.04745 19.6553 8.9577 19.6553 9.87695V10.877ZM5.65527 12.877V20.877H19.6553V12.877H5.65527ZM11.6553 15.277C11.6553 15.056 11.8344 14.877 12.0553 14.877H13.2553C13.4762 14.877 13.6553 15.056 13.6553 15.277V18.477C13.6553 18.6979 13.4762 18.877 13.2553 18.877H12.0553C11.8344 18.877 11.6553 18.6979 11.6553 18.477V15.277ZM17.6553 10.877V9.87695C17.6553 8.55087 17.1285 7.2791 16.1908 6.34142C15.2531 5.40374 13.9814 4.87695 12.6553 4.87695C11.3292 4.87695 10.0574 5.40374 9.11974 6.34142C8.18206 7.2791 7.65527 8.55087 7.65527 9.87695V10.877H17.6553Z"
        fill="white" />
</svg>
