<svg width="16" height="16" viewBox="0 0 16 16" fill="none" xmlns="http://www.w3.org/2000/svg">
    <path
        d="M11.4998 3.99967H14.4331C14.654 3.99967 14.8331 4.17876 14.8331 4.39967V4.93301C14.8331 5.15392 14.654 5.33301 14.4331 5.33301H13.4998L12.8331 13.9997C12.8331 14.1765 12.7629 14.3461 12.6378 14.4711C12.5128 14.5961 12.3432 14.6663 12.1664 14.6663H4.16642C3.98961 14.6663 3.82004 14.5961 3.69502 14.4711C3.56999 14.3461 3.49976 14.1765 3.49976 13.9997L2.83309 5.33301H1.89976C1.67884 5.33301 1.49976 5.15392 1.49976 4.93301V4.39967C1.49976 4.17876 1.67884 3.99967 1.89976 3.99967H4.83309V1.99967C4.83309 1.82286 4.90333 1.65329 5.02835 1.52827C5.15338 1.40325 5.32294 1.33301 5.49976 1.33301H10.8331C11.0099 1.33301 11.1795 1.40325 11.3045 1.52827C11.4295 1.65329 11.4998 1.82286 11.4998 1.99967V3.99967ZM12.1664 5.33301H4.16642L4.83309 13.333H11.4998L12.1664 5.33301ZM6.16642 7.83301C6.16642 7.55687 6.39028 7.33301 6.66642 7.33301H6.99976C7.2759 7.33301 7.49976 7.55687 7.49976 7.83301V10.833C7.49976 11.1092 7.2759 11.333 6.99976 11.333H6.66642C6.39028 11.333 6.16642 11.1092 6.16642 10.833V7.83301ZM8.83309 7.83301C8.83309 7.55687 9.05695 7.33301 9.33309 7.33301H9.66642C9.94256 7.33301 10.1664 7.55687 10.1664 7.83301V10.833C10.1664 11.1092 9.94256 11.333 9.66642 11.333H9.33309C9.05695 11.333 8.83309 11.1092 8.83309 10.833V7.83301ZM6.16642 2.66634V3.99967H10.1664V2.66634H6.16642Z"
        fill="white" />
</svg>
