<svg width="16" height="16" viewBox="0 0 16 16" fill="none" xmlns="http://www.w3.org/2000/svg">
    <path
        d="M13.3333 7.05733L14.1984 6.19175C14.3936 5.99639 14.7103 5.99635 14.9056 6.19165L15.1417 6.42774C15.3369 6.62302 15.3369 6.93963 15.1416 7.13489L13.0201 9.25591C12.8248 9.45111 12.5083 9.45111 12.3131 9.25591L10.1916 7.13489C9.99625 6.93963 9.99624 6.62302 10.1915 6.42774L10.4276 6.19165C10.6229 5.99635 10.9396 5.99639 11.1348 6.19175L11.9999 7.05733V5.33333C11.9999 4.8029 11.7892 4.29419 11.4141 3.91912C11.0391 3.54405 10.5304 3.33333 9.99992 3.33333H7.73325C7.51234 3.33333 7.33325 3.15425 7.33325 2.93333V2.4C7.33325 2.17909 7.51234 2 7.73325 2H9.99992C10.884 2 11.7318 2.35119 12.3569 2.97631C12.9821 3.60143 13.3333 4.44928 13.3333 5.33333V7.05733ZM8.66659 6C8.8434 6 9.01297 6.07024 9.13799 6.19526C9.26301 6.32029 9.33325 6.48986 9.33325 6.66667V13.3333C9.33325 13.5101 9.26301 13.6797 9.13799 13.8047C9.01297 13.9298 8.8434 14 8.66659 14H1.99992C1.82311 14 1.65354 13.9298 1.52851 13.8047C1.40349 13.6797 1.33325 13.5101 1.33325 13.3333V6.66667C1.33325 6.48986 1.40349 6.32029 1.52851 6.19526C1.65354 6.07024 1.82311 6 1.99992 6H8.66659ZM7.99992 7.33333H2.66659V12.6667H7.99992V7.33333Z"
        fill="white" />
</svg>
