<svg width="25" height="25" viewBox="0 0 25 25" fill="none" xmlns="http://www.w3.org/2000/svg">
    <path
        d="M20.6553 11.463L22.1297 9.9877C22.325 9.79235 22.6416 9.7923 22.8369 9.9876L23.5447 10.6954C23.74 10.8906 23.7399 11.2073 23.5446 11.4025L20.0088 14.9375C19.8135 15.1327 19.497 15.1327 19.3018 14.9375L15.7659 11.4025C15.5706 11.2073 15.5706 10.8906 15.7659 10.6954L16.4736 9.9876C16.6689 9.7923 16.9856 9.79235 17.1808 9.9877L18.6553 11.463V8.87695C18.6553 8.0813 18.3392 7.31824 17.7766 6.75563C17.214 6.19302 16.4509 5.87695 15.6553 5.87695H12.0553C11.8344 5.87695 11.6553 5.69787 11.6553 5.47695V4.27695C11.6553 4.05604 11.8344 3.87695 12.0553 3.87695H15.6553C16.9814 3.87695 18.2531 4.40374 19.1908 5.34142C20.1285 6.2791 20.6553 7.55087 20.6553 8.87695V11.463ZM13.6553 9.87695C13.9205 9.87695 14.1748 9.98231 14.3624 10.1698C14.5499 10.3574 14.6553 10.6117 14.6553 10.877V20.877C14.6553 21.1422 14.5499 21.3965 14.3624 21.5841C14.1748 21.7716 13.9205 21.877 13.6553 21.877H3.65527C3.39006 21.877 3.1357 21.7716 2.94817 21.5841C2.76063 21.3965 2.65527 21.1422 2.65527 20.877V10.877C2.65527 10.6117 2.76063 10.3574 2.94817 10.1698C3.1357 9.98231 3.39006 9.87695 3.65527 9.87695H13.6553ZM12.6553 11.877H4.65527V19.877H12.6553V11.877Z"
        fill="white" />
</svg>
