<svg width="16" height="16" viewBox="0 0 16 16" fill="none" xmlns="http://www.w3.org/2000/svg">
    <path
        d="M4.66667 6.66705H13.3333C13.5101 6.66705 13.6797 6.73729 13.8047 6.86232C13.9298 6.98734 14 7.15691 14 7.33372V14.0004C14 14.1772 13.9298 14.3468 13.8047 14.4718C13.6797 14.5968 13.5101 14.6671 13.3333 14.6671H2.66667C2.48986 14.6671 2.32029 14.5968 2.19526 14.4718C2.07024 14.3468 2 14.1772 2 14.0004V7.33372C2 7.15691 2.07024 6.98734 2.19526 6.86232C2.32029 6.73729 2.48986 6.66705 2.66667 6.66705H3.33333V6.00039C3.33295 4.94885 3.68772 3.92801 4.34013 3.10334C4.99253 2.27867 5.90434 1.69851 6.92773 1.45689C7.95113 1.21528 9.02613 1.32638 9.97848 1.77219C10.8097 2.16129 11.5049 2.78544 11.9808 3.56334C12.0961 3.75177 12.0145 3.9931 11.8169 4.09184L11.3399 4.33022C11.1422 4.42898 10.9039 4.34712 10.7822 4.16271C10.4451 3.65185 9.9722 3.24135 9.41322 2.97968C8.73291 2.66122 7.96497 2.58187 7.23392 2.7545C6.50287 2.92714 5.85155 3.34163 5.38557 3.93079C4.91959 4.51995 4.66627 5.24922 4.66667 6.00039V6.66705ZM3.33333 8.00039V13.3337H12.6667V8.00039H3.33333ZM6.66667 10.4004C6.66667 10.1795 6.84575 10.0004 7.06667 10.0004H8.93333C9.15425 10.0004 9.33333 10.1795 9.33333 10.4004V10.9337C9.33333 11.1546 9.15425 11.3337 8.93333 11.3337H7.06667C6.84575 11.3337 6.66667 11.1546 6.66667 10.9337V10.4004Z"
        fill="white" />
</svg>
