<svg width="16" height="16" viewBox="0 0 16 16" fill="none" xmlns="http://www.w3.org/2000/svg">
    <path fill-rule="evenodd" clip-rule="evenodd"
        d="M12.6667 12.6667V9.83333C12.6667 9.55719 12.8905 9.33333 13.1667 9.33333H13.5C13.7761 9.33333 14 9.55719 14 9.83333V13.3333C14 13.7015 13.7015 14 13.3333 14H9.83333C9.55719 14 9.33333 13.7761 9.33333 13.5V13.1667C9.33333 12.8905 9.55719 12.6667 9.83333 12.6667H12.6667Z"
        fill="white" />
    <path fill-rule="evenodd" clip-rule="evenodd"
        d="M9.45118 9.21548C9.64645 9.02022 9.96303 9.02022 10.1583 9.21548L13.8047 12.8619L12.8619 13.8047L9.21548 10.1583C9.02022 9.96303 9.02022 9.64645 9.21548 9.45119L9.45118 9.21548Z"
        fill="white" />
    <path fill-rule="evenodd" clip-rule="evenodd"
        d="M3.33333 3.33333L3.33333 6.16667C3.33333 6.44281 3.10948 6.66667 2.83333 6.66667H2.5C2.22386 6.66667 2 6.44281 2 6.16667L2 2.66667C2 2.29848 2.29848 2 2.66667 2L6.16667 2C6.44281 2 6.66667 2.22386 6.66667 2.5V2.83333C6.66667 3.10948 6.44281 3.33333 6.16667 3.33333L3.33333 3.33333Z"
        fill="white" />
    <path fill-rule="evenodd" clip-rule="evenodd"
        d="M6.54882 6.78452C6.35355 6.97978 6.03697 6.97978 5.84171 6.78452L2.19526 3.13807L3.13807 2.19526L6.78452 5.84171C6.97978 6.03697 6.97978 6.35355 6.78452 6.54882L6.54882 6.78452Z"
        fill="white" />
</svg>
