<svg width="25" height="25" viewBox="0 0 25 25" fill="none" xmlns="http://www.w3.org/2000/svg">
    <path fill-rule="evenodd" clip-rule="evenodd"
        d="M19.6553 19.877V15.377C19.6553 15.1008 19.8791 14.877 20.1553 14.877H21.1553C21.4314 14.877 21.6553 15.1008 21.6553 15.377V20.877C21.6553 21.4292 21.2076 21.877 20.6553 21.877H15.1553C14.8791 21.877 14.6553 21.6531 14.6553 21.377V20.377C14.6553 20.1008 14.8791 19.877 15.1553 19.877H19.6553Z"
        fill="white" />
    <path fill-rule="evenodd" clip-rule="evenodd"
        d="M15.0088 14.5234C15.2041 14.3281 15.5207 14.3281 15.7159 14.5234L21.3624 20.1698L19.9482 21.5841L14.3017 15.9376C14.1065 15.7424 14.1065 15.4258 14.3017 15.2305L15.0088 14.5234Z"
        fill="white" />
    <path fill-rule="evenodd" clip-rule="evenodd"
        d="M5.65527 5.87695L5.65527 10.377C5.65527 10.6531 5.43142 10.877 5.15527 10.877H4.15527C3.87913 10.877 3.65527 10.6531 3.65527 10.377L3.65527 4.87695C3.65527 4.32467 4.10299 3.87695 4.65527 3.87695L10.1553 3.87695C10.4314 3.87695 10.6553 4.10081 10.6553 4.37695V5.37695C10.6553 5.6531 10.4314 5.87695 10.1553 5.87695L5.65527 5.87695Z"
        fill="white" />
    <path fill-rule="evenodd" clip-rule="evenodd"
        d="M10.3017 11.2305C10.1065 11.4258 9.78988 11.4258 9.59461 11.2305L3.94817 5.58406L5.36238 4.16985L11.0088 9.81629C11.2041 10.0116 11.2041 10.3281 11.0088 10.5234L10.3017 11.2305Z"
        fill="white" />
</svg>
