<svg width="25" height="25" viewBox="0 0 25 25" fill="none" xmlns="http://www.w3.org/2000/svg">
    <path
        d="M17.9043 6.87695H22.5043C22.7252 6.87695 22.9043 7.05604 22.9043 7.27695V8.47695C22.9043 8.69787 22.7252 8.87695 22.5043 8.87695H20.9043L19.9043 21.877C19.9043 22.1422 19.7989 22.3965 19.6114 22.5841C19.4239 22.7716 19.1695 22.877 18.9043 22.877H6.9043C6.63908 22.877 6.38473 22.7716 6.19719 22.5841C6.00965 22.3965 5.9043 22.1422 5.9043 21.877L4.9043 8.87695H3.3043C3.08338 8.87695 2.9043 8.69787 2.9043 8.47695V7.27695C2.9043 7.05604 3.08338 6.87695 3.3043 6.87695H7.9043V3.87695C7.9043 3.61174 8.00965 3.35738 8.19719 3.16985C8.38473 2.98231 8.63908 2.87695 8.9043 2.87695H16.9043C17.1695 2.87695 17.4239 2.98231 17.6114 3.16985C17.7989 3.35738 17.9043 3.61174 17.9043 3.87695V6.87695ZM18.9043 8.87695H6.9043L7.9043 20.877H17.9043L18.9043 8.87695ZM9.9043 12.377C9.9043 12.1008 10.1282 11.877 10.4043 11.877H11.4043C11.6804 11.877 11.9043 12.1008 11.9043 12.377V17.377C11.9043 17.6531 11.6804 17.877 11.4043 17.877H10.4043C10.1282 17.877 9.9043 17.6531 9.9043 17.377V12.377ZM13.9043 12.377C13.9043 12.1008 14.1282 11.877 14.4043 11.877H15.4043C15.6804 11.877 15.9043 12.1008 15.9043 12.377V17.377C15.9043 17.6531 15.6804 17.877 15.4043 17.877H14.4043C14.1282 17.877 13.9043 17.6531 13.9043 17.377V12.377ZM9.9043 4.87695V6.87695H15.9043V4.87695H9.9043Z"
        fill="white" />
</svg>
