<svg width="25" height="25" viewBox="0 0 25 25" fill="none" xmlns="http://www.w3.org/2000/svg">
    <path
        d="M7.65527 10.8766H20.6553C20.9205 10.8766 21.1748 10.9819 21.3624 11.1694C21.5499 11.357 21.6553 11.6113 21.6553 11.8766V21.8766C21.6553 22.1418 21.5499 22.3961 21.3624 22.5837C21.1748 22.7712 20.9205 22.8766 20.6553 22.8766H4.65527C4.39006 22.8766 4.1357 22.7712 3.94817 22.5837C3.76063 22.3961 3.65527 22.1418 3.65527 21.8766V11.8766C3.65527 11.6113 3.76063 11.357 3.94817 11.1694C4.1357 10.9819 4.39006 10.8766 4.65527 10.8766H5.65527V9.87656C5.6547 8.29926 6.18685 6.768 7.16546 5.53099C8.14407 4.29398 9.51178 3.42373 11.0469 3.06132C12.582 2.6989 14.1945 2.86555 15.623 3.53427C16.9305 4.14632 18.0137 5.14612 18.7284 6.39303C18.8382 6.58469 18.7571 6.8256 18.5595 6.92434L17.4861 7.46072C17.2885 7.55948 17.0496 7.4783 16.9354 7.28917C16.4252 6.44427 15.6744 5.76648 14.7751 5.3455C13.7546 4.8678 12.6027 4.74878 11.5062 5.00773C10.4096 5.26668 9.4326 5.88843 8.73363 6.77216C8.03466 7.6559 7.65467 8.74981 7.65527 9.87656V10.8766ZM5.65527 12.8766V20.8766H19.6553V12.8766H5.65527ZM10.6553 16.2766C10.6553 16.0556 10.8344 15.8766 11.0553 15.8766H14.2553C14.4762 15.8766 14.6553 16.0556 14.6553 16.2766V17.4766C14.6553 17.6975 14.4762 17.8766 14.2553 17.8766H11.0553C10.8344 17.8766 10.6553 17.6975 10.6553 17.4766V16.2766Z"
        fill="white" />
</svg>
