<svg height="1024" node-id="1" sillyvg="true" template-height="1024" template-width="1024"
    version="1.1" viewBox="0 0 1024 1024" width="1024" xmlns="http://www.w3.org/2000/svg">
    <defs node-id="95">
        <linearGradient gradientUnits="objectBoundingBox" id="SVGID_1_" node-id="10"
            spreadMethod="pad" x1="-1782.9918" x2="-1778.3612" y1="965.3464" y2="969.1164">
            <stop offset="0" stop-color="#7da4fe" />
            <stop offset="1" stop-color="#d4e3ff" />
        </linearGradient>
        <linearGradient gradientUnits="objectBoundingBox" id="SVGID_2_" node-id="14"
            spreadMethod="pad" x1="-1777.3868" x2="-1782.1702" y1="970.4349" y2="965.6898">
            <stop offset="0" stop-color="#6aacee" />
            <stop offset="1" stop-color="#c2e7fc" />
        </linearGradient>
        <linearGradient gradientUnits="objectBoundingBox" id="SVGID_3_" node-id="20"
            spreadMethod="pad" x1="-1541.1476" x2="-1536.517" y1="947.2614" y2="951.0314">
            <stop offset="0" stop-color="#7da4fe" />
            <stop offset="1" stop-color="#d4e3ff" />
        </linearGradient>
        <linearGradient gradientUnits="objectBoundingBox" id="SVGID_4_" node-id="24"
            spreadMethod="pad" x1="-1535.5426" x2="-1540.3259" y1="952.3499" y2="947.6047">
            <stop offset="0" stop-color="#6aacee" />
            <stop offset="1" stop-color="#c2e7fc" />
        </linearGradient>
        <linearGradient gradientUnits="objectBoundingBox" id="SVGID_5_" node-id="30"
            spreadMethod="pad" x1="-1643.2228" x2="-1638.5922" y1="954.8996" y2="958.6696">
            <stop offset="0" stop-color="#7da4fe" />
            <stop offset="1" stop-color="#d4e3ff" />
        </linearGradient>
        <linearGradient gradientUnits="objectBoundingBox" id="SVGID_6_" node-id="34"
            spreadMethod="pad" x1="-1637.6177" x2="-1642.4011" y1="959.988" y2="955.2429">
            <stop offset="0" stop-color="#6aacee" />
            <stop offset="1" stop-color="#c2e7fc" />
        </linearGradient>
        <linearGradient gradientUnits="objectBoundingBox" id="SVGID_7_" node-id="40"
            spreadMethod="pad" x1="-1684.1157" x2="-1679.4852" y1="992.1155" y2="995.8854">
            <stop offset="0" stop-color="#7da4fe" />
            <stop offset="1" stop-color="#d4e3ff" />
        </linearGradient>
        <linearGradient gradientUnits="objectBoundingBox" id="SVGID_8_" node-id="44"
            spreadMethod="pad" x1="-1678.5107" x2="-1683.2941" y1="997.204" y2="992.4588">
            <stop offset="0" stop-color="#6aacee" />
            <stop offset="1" stop-color="#c2e7fc" />
        </linearGradient>
        <linearGradient gradientUnits="objectBoundingBox" id="SVGID_9_" node-id="50"
            spreadMethod="pad" x1="-1943.3657" x2="-1946.2618" y1="1001.718" y2="998.5061">
            <stop offset="0" stop-color="#7da4fe" />
            <stop offset="1" stop-color="#d4e3ff" />
        </linearGradient>
        <linearGradient gradientUnits="objectBoundingBox" id="SVGID_10_" node-id="54"
            spreadMethod="pad" x1="-1940.142" x2="-1946.3169" y1="1008.0093" y2="995.9204">
            <stop offset="0" stop-color="#6aacee" />
            <stop offset="1" stop-color="#c2e7fc" />
        </linearGradient>
        <linearGradient gradientUnits="objectBoundingBox" id="SVGID_11_" node-id="59"
            spreadMethod="pad" x1="-1965.9181" x2="-1968.9216" y1="1016.564" y2="1021.8736">
            <stop offset="0" stop-color="#c4d6ff" />
            <stop offset="1" stop-color="#f4f8ff" />
        </linearGradient>
        <linearGradient gradientUnits="objectBoundingBox" id="SVGID_12_" node-id="63"
            spreadMethod="pad" x1="-1964.8834" x2="-1969.6285" y1="1016.6373" y2="1021.4206">
            <stop offset="0.0357" stop-color="#b9dcff" />
            <stop offset="1" stop-color="#e5f6ff" />
        </linearGradient>
        <linearGradient gradientUnits="objectBoundingBox" id="SVGID_13_" node-id="68"
            spreadMethod="pad" x1="-1962.6276" x2="-1957.9971" y1="962.6857" y2="966.4556">
            <stop offset="0" stop-color="#7da4fe" />
            <stop offset="1" stop-color="#d4e3ff" />
        </linearGradient>
        <linearGradient gradientUnits="objectBoundingBox" id="SVGID_14_" node-id="72"
            spreadMethod="pad" x1="-1961.8352" x2="-1957.0519" y1="962.9995" y2="967.7446">
            <stop offset="0" stop-color="#6aacee" />
            <stop offset="1" stop-color="#c2e7fc" />
        </linearGradient>
        <linearGradient gradientUnits="objectBoundingBox" id="SVGID_15_" node-id="77"
            spreadMethod="pad" x1="-1931.8643" x2="-1926.5988" y1="990.8732" y2="985.7316">
            <stop offset="0" stop-color="#7da4fe" />
            <stop offset="1" stop-color="#d4e3ff" />
        </linearGradient>
        <linearGradient gradientUnits="objectBoundingBox" id="SVGID_16_" node-id="81"
            spreadMethod="pad" x1="-1926.1703" x2="-1930.9536" y1="991.1656" y2="986.4204">
            <stop offset="0" stop-color="#6aacee" />
            <stop offset="1" stop-color="#c2e7fc" />
        </linearGradient>
        <linearGradient gradientUnits="objectBoundingBox" id="SVGID_17_" node-id="86"
            spreadMethod="pad" x1="-1949.9027" x2="-1945.7385" y1="1020.521" y2="1016.748">
            <stop offset="0" stop-color="#7da4fe" />
            <stop offset="1" stop-color="#d4e3ff" />
        </linearGradient>
        <linearGradient gradientUnits="objectBoundingBox" id="SVGID_18_" node-id="90"
            spreadMethod="pad" x1="-1953.1946" x2="-1943.7789" y1="1014.4094" y2="1022.0214">
            <stop offset="0" stop-color="#6aacee" />
            <stop offset="1" stop-color="#c2e7fc" />
        </linearGradient>
    </defs>
    <g node-id="288">
        <path
            d="M 923.33 748.69 C 923.33 774.91 879.99 800.05 802.85 818.59 C 725.71 837.13 621.09 847.54 512.00 847.54 C 402.91 847.54 298.29 837.13 221.15 818.59 C 144.01 800.05 100.67 774.91 100.67 748.69 C 100.67 722.47 144.01 697.33 221.15 678.79 C 298.29 660.25 402.91 649.84 512.00 649.84 C 621.09 649.84 725.71 660.25 802.85 678.79 C 879.99 697.33 923.33 722.47 923.33 748.69 Z"
            fill="#9fcfff" fill-opacity="0.2" fill-rule="nonzero" group-id="1" node-id="210"
            stroke="none" target-height="197.69995" target-width="822.6599" target-x="100.67001"
            target-y="649.84" />
    </g>
    <g node-id="289">
        <g node-id="290">
            <path
                d="M 174.79 641.59 C 175.02 642.01 175.35 642.33 175.77 642.57 L 189.26 650.18 C 189.36 650.24 189.45 650.30 189.54 650.37 C 189.63 650.44 189.72 650.51 189.80 650.59 C 189.88 650.67 189.96 650.75 190.03 650.84 C 190.10 650.93 190.16 651.02 190.22 651.12 C 190.28 651.22 190.33 651.32 190.37 651.42 C 190.41 651.52 190.45 651.63 190.48 651.74 C 190.51 651.85 190.53 651.96 190.55 652.07 C 190.56 652.18 190.57 652.30 190.57 652.41 C 190.57 652.52 190.56 652.64 190.55 652.75 C 190.53 652.86 190.51 652.97 190.48 653.08 C 190.45 653.19 190.41 653.30 190.37 653.40 C 190.33 653.50 190.28 653.61 190.22 653.70 C 190.16 653.80 190.10 653.89 190.03 653.98 C 189.96 654.07 189.89 654.15 189.80 654.23 C 189.72 654.31 189.63 654.38 189.54 654.45 C 189.45 654.52 189.35 654.58 189.26 654.64 L 175.77 662.25 C 175.35 662.48 175.03 662.81 174.79 663.23 L 167.18 676.72 C 167.12 676.82 167.06 676.91 166.99 677.00 C 166.92 677.09 166.85 677.18 166.77 677.26 C 166.69 677.34 166.61 677.42 166.52 677.49 C 166.43 677.56 166.34 677.62 166.24 677.68 C 166.14 677.74 166.04 677.79 165.94 677.83 C 165.84 677.87 165.73 677.91 165.62 677.94 C 165.51 677.97 165.40 677.99 165.29 678.01 C 165.18 678.02 165.06 678.03 164.95 678.03 C 164.84 678.03 164.72 678.02 164.61 678.01 C 164.50 677.99 164.39 677.97 164.28 677.94 C 164.17 677.91 164.06 677.87 163.96 677.83 C 163.86 677.79 163.75 677.74 163.66 677.68 C 163.56 677.62 163.47 677.56 163.38 677.49 C 163.29 677.42 163.21 677.35 163.13 677.26 C 163.05 677.17 162.98 677.09 162.91 677.00 C 162.84 676.91 162.78 676.81 162.72 676.72 L 155.11 663.23 C 154.88 662.81 154.55 662.49 154.13 662.25 L 140.64 654.64 C 140.54 654.58 140.45 654.52 140.36 654.45 C 140.27 654.38 140.18 654.31 140.10 654.23 C 140.02 654.15 139.94 654.07 139.87 653.98 C 139.80 653.89 139.74 653.80 139.68 653.70 C 139.62 653.60 139.57 653.50 139.53 653.40 C 139.49 653.30 139.45 653.19 139.42 653.08 C 139.39 652.97 139.37 652.86 139.35 652.75 C 139.34 652.64 139.33 652.52 139.33 652.41 C 139.33 652.30 139.34 652.18 139.35 652.07 C 139.36 651.96 139.39 651.85 139.42 651.74 C 139.45 651.63 139.49 651.52 139.53 651.42 C 139.57 651.32 139.62 651.21 139.68 651.12 C 139.74 651.02 139.80 650.93 139.87 650.84 C 139.94 650.75 140.01 650.67 140.10 650.59 C 140.18 650.51 140.27 650.44 140.36 650.37 C 140.45 650.30 140.55 650.24 140.64 650.18 L 154.13 642.57 C 154.55 642.34 154.87 642.01 155.11 641.59 L 162.72 628.10 C 162.78 628.00 162.84 627.91 162.91 627.82 C 162.98 627.73 163.05 627.64 163.13 627.56 C 163.21 627.48 163.29 627.40 163.38 627.33 C 163.47 627.26 163.56 627.20 163.66 627.14 C 163.76 627.08 163.86 627.03 163.96 626.99 C 164.06 626.95 164.17 626.91 164.28 626.88 C 164.39 626.85 164.50 626.83 164.61 626.81 C 164.72 626.80 164.84 626.79 164.95 626.79 C 165.06 626.79 165.18 626.80 165.29 626.81 C 165.40 626.82 165.51 626.85 165.62 626.88 C 165.73 626.91 165.84 626.95 165.94 626.99 C 166.04 627.03 166.15 627.08 166.24 627.14 C 166.34 627.20 166.43 627.26 166.52 627.33 C 166.61 627.40 166.69 627.47 166.77 627.56 C 166.85 627.64 166.92 627.73 166.99 627.82 C 167.06 627.91 167.12 628.01 167.18 628.10 L 174.79 641.59 Z"
                fill="#d8d8d8" fill-rule="nonzero" group-id="2,3" node-id="217" stroke="none"
                target-height="51.24005" target-width="51.240005" target-x="139.33"
                target-y="626.79" />
            <path
                d="M 174.79 641.59 C 175.02 642.01 175.35 642.33 175.77 642.57 L 189.26 650.18 C 189.36 650.24 189.45 650.30 189.54 650.37 C 189.63 650.44 189.72 650.51 189.80 650.59 C 189.88 650.67 189.96 650.75 190.03 650.84 C 190.10 650.93 190.16 651.02 190.22 651.12 C 190.28 651.22 190.33 651.32 190.37 651.42 C 190.41 651.52 190.45 651.63 190.48 651.74 C 190.51 651.85 190.53 651.96 190.55 652.07 C 190.56 652.18 190.57 652.30 190.57 652.41 C 190.57 652.52 190.56 652.64 190.55 652.75 C 190.53 652.86 190.51 652.97 190.48 653.08 C 190.45 653.19 190.41 653.30 190.37 653.40 C 190.33 653.50 190.28 653.61 190.22 653.70 C 190.16 653.80 190.10 653.89 190.03 653.98 C 189.96 654.07 189.89 654.15 189.80 654.23 C 189.72 654.31 189.63 654.38 189.54 654.45 C 189.45 654.52 189.35 654.58 189.26 654.64 L 175.77 662.25 C 175.35 662.48 175.03 662.81 174.79 663.23 L 167.18 676.72 C 167.12 676.82 167.06 676.91 166.99 677.00 C 166.92 677.09 166.85 677.18 166.77 677.26 C 166.69 677.34 166.61 677.42 166.52 677.49 C 166.43 677.56 166.34 677.62 166.24 677.68 C 166.14 677.74 166.04 677.79 165.94 677.83 C 165.84 677.87 165.73 677.91 165.62 677.94 C 165.51 677.97 165.40 677.99 165.29 678.01 C 165.18 678.02 165.06 678.03 164.95 678.03 C 164.84 678.03 164.72 678.02 164.61 678.01 C 164.50 677.99 164.39 677.97 164.28 677.94 C 164.17 677.91 164.06 677.87 163.96 677.83 C 163.86 677.79 163.75 677.74 163.66 677.68 C 163.56 677.62 163.47 677.56 163.38 677.49 C 163.29 677.42 163.21 677.35 163.13 677.26 C 163.05 677.17 162.98 677.09 162.91 677.00 C 162.84 676.91 162.78 676.81 162.72 676.72 L 155.11 663.23 C 154.88 662.81 154.55 662.49 154.13 662.25 L 140.64 654.64 C 140.54 654.58 140.45 654.52 140.36 654.45 C 140.27 654.38 140.18 654.31 140.10 654.23 C 140.02 654.15 139.94 654.07 139.87 653.98 C 139.80 653.89 139.74 653.80 139.68 653.70 C 139.62 653.60 139.57 653.50 139.53 653.40 C 139.49 653.30 139.45 653.19 139.42 653.08 C 139.39 652.97 139.37 652.86 139.35 652.75 C 139.34 652.64 139.33 652.52 139.33 652.41 C 139.33 652.30 139.34 652.18 139.35 652.07 C 139.36 651.96 139.39 651.85 139.42 651.74 C 139.45 651.63 139.49 651.52 139.53 651.42 C 139.57 651.32 139.62 651.21 139.68 651.12 C 139.74 651.02 139.80 650.93 139.87 650.84 C 139.94 650.75 140.01 650.67 140.10 650.59 C 140.18 650.51 140.27 650.44 140.36 650.37 C 140.45 650.30 140.55 650.24 140.64 650.18 L 154.13 642.57 C 154.55 642.34 154.87 642.01 155.11 641.59 L 162.72 628.10 C 162.78 628.00 162.84 627.91 162.91 627.82 C 162.98 627.73 163.05 627.64 163.13 627.56 C 163.21 627.48 163.29 627.40 163.38 627.33 C 163.47 627.26 163.56 627.20 163.66 627.14 C 163.76 627.08 163.86 627.03 163.96 626.99 C 164.06 626.95 164.17 626.91 164.28 626.88 C 164.39 626.85 164.50 626.83 164.61 626.81 C 164.72 626.80 164.84 626.79 164.95 626.79 C 165.06 626.79 165.18 626.80 165.29 626.81 C 165.40 626.82 165.51 626.85 165.62 626.88 C 165.73 626.91 165.84 626.95 165.94 626.99 C 166.04 627.03 166.15 627.08 166.24 627.14 C 166.34 627.20 166.43 627.26 166.52 627.33 C 166.61 627.40 166.69 627.47 166.77 627.56 C 166.85 627.64 166.92 627.73 166.99 627.82 C 167.06 627.91 167.12 628.01 167.18 628.10 L 174.79 641.59 Z"
                fill="url(#SVGID_1_)" fill-rule="nonzero" group-id="2,3" node-id="219" stroke="none"
                target-height="51.24005" target-width="51.240005" target-x="139.33"
                target-y="626.79" />
            <path
                d="M 174.79 641.59 C 175.02 642.01 175.35 642.33 175.77 642.57 L 189.26 650.18 C 189.36 650.24 189.45 650.30 189.54 650.37 C 189.63 650.44 189.72 650.51 189.80 650.59 C 189.88 650.67 189.96 650.75 190.03 650.84 C 190.10 650.93 190.16 651.02 190.22 651.12 C 190.28 651.22 190.33 651.32 190.37 651.42 C 190.41 651.52 190.45 651.63 190.48 651.74 C 190.51 651.85 190.53 651.96 190.55 652.07 C 190.56 652.18 190.57 652.30 190.57 652.41 C 190.57 652.52 190.56 652.64 190.55 652.75 C 190.53 652.86 190.51 652.97 190.48 653.08 C 190.45 653.19 190.41 653.30 190.37 653.40 C 190.33 653.50 190.28 653.61 190.22 653.70 C 190.16 653.80 190.10 653.89 190.03 653.98 C 189.96 654.07 189.89 654.15 189.80 654.23 C 189.72 654.31 189.63 654.38 189.54 654.45 C 189.45 654.52 189.35 654.58 189.26 654.64 L 175.77 662.25 C 175.35 662.48 175.03 662.81 174.79 663.23 L 167.18 676.72 C 167.12 676.82 167.06 676.91 166.99 677.00 C 166.92 677.09 166.85 677.18 166.77 677.26 C 166.69 677.34 166.61 677.42 166.52 677.49 C 166.43 677.56 166.34 677.62 166.24 677.68 C 166.14 677.74 166.04 677.79 165.94 677.83 C 165.84 677.87 165.73 677.91 165.62 677.94 C 165.51 677.97 165.40 677.99 165.29 678.01 C 165.18 678.02 165.06 678.03 164.95 678.03 C 164.84 678.03 164.72 678.02 164.61 678.01 C 164.50 677.99 164.39 677.97 164.28 677.94 C 164.17 677.91 164.06 677.87 163.96 677.83 C 163.86 677.79 163.75 677.74 163.66 677.68 C 163.56 677.62 163.47 677.56 163.38 677.49 C 163.29 677.42 163.21 677.35 163.13 677.26 C 163.05 677.17 162.98 677.09 162.91 677.00 C 162.84 676.91 162.78 676.81 162.72 676.72 L 155.11 663.23 C 154.88 662.81 154.55 662.49 154.13 662.25 L 140.64 654.64 C 140.54 654.58 140.45 654.52 140.36 654.45 C 140.27 654.38 140.18 654.31 140.10 654.23 C 140.02 654.15 139.94 654.07 139.87 653.98 C 139.80 653.89 139.74 653.80 139.68 653.70 C 139.62 653.60 139.57 653.50 139.53 653.40 C 139.49 653.30 139.45 653.19 139.42 653.08 C 139.39 652.97 139.37 652.86 139.35 652.75 C 139.34 652.64 139.33 652.52 139.33 652.41 C 139.33 652.30 139.34 652.18 139.35 652.07 C 139.36 651.96 139.39 651.85 139.42 651.74 C 139.45 651.63 139.49 651.52 139.53 651.42 C 139.57 651.32 139.62 651.21 139.68 651.12 C 139.74 651.02 139.80 650.93 139.87 650.84 C 139.94 650.75 140.01 650.67 140.10 650.59 C 140.18 650.51 140.27 650.44 140.36 650.37 C 140.45 650.30 140.55 650.24 140.64 650.18 L 154.13 642.57 C 154.55 642.34 154.87 642.01 155.11 641.59 L 162.72 628.10 C 162.78 628.00 162.84 627.91 162.91 627.82 C 162.98 627.73 163.05 627.64 163.13 627.56 C 163.21 627.48 163.29 627.40 163.38 627.33 C 163.47 627.26 163.56 627.20 163.66 627.14 C 163.76 627.08 163.86 627.03 163.96 626.99 C 164.06 626.95 164.17 626.91 164.28 626.88 C 164.39 626.85 164.50 626.83 164.61 626.81 C 164.72 626.80 164.84 626.79 164.95 626.79 C 165.06 626.79 165.18 626.80 165.29 626.81 C 165.40 626.82 165.51 626.85 165.62 626.88 C 165.73 626.91 165.84 626.95 165.94 626.99 C 166.04 627.03 166.15 627.08 166.24 627.14 C 166.34 627.20 166.43 627.26 166.52 627.33 C 166.61 627.40 166.69 627.47 166.77 627.56 C 166.85 627.64 166.92 627.73 166.99 627.82 C 167.06 627.91 167.12 628.01 167.18 628.10 L 174.79 641.59 Z"
                fill="url(#SVGID_2_)" fill-rule="nonzero" group-id="2,3" node-id="221" stroke="none"
                target-height="51.24005" target-width="51.240005" target-x="139.33"
                target-y="626.79" />
        </g>
        <g node-id="291">
            <path
                d="M 890.90 496.19 C 891.13 496.61 891.46 496.93 891.88 497.17 L 898.79 501.07 C 898.89 501.13 898.98 501.19 899.07 501.26 C 899.16 501.33 899.25 501.40 899.33 501.48 C 899.41 501.56 899.49 501.64 899.56 501.73 C 899.63 501.82 899.69 501.91 899.75 502.01 C 899.81 502.11 899.86 502.21 899.90 502.31 C 899.94 502.41 899.98 502.52 900.01 502.63 C 900.04 502.74 900.06 502.85 900.08 502.96 C 900.09 503.07 900.10 503.19 900.10 503.30 C 900.10 503.41 900.09 503.53 900.08 503.64 C 900.06 503.75 900.04 503.86 900.01 503.97 C 899.98 504.08 899.94 504.19 899.90 504.29 C 899.86 504.39 899.81 504.50 899.75 504.59 C 899.69 504.69 899.63 504.78 899.56 504.87 C 899.49 504.96 899.42 505.04 899.33 505.12 C 899.25 505.20 899.16 505.27 899.07 505.34 C 898.98 505.41 898.88 505.47 898.79 505.53 L 891.88 509.43 C 891.46 509.66 891.14 509.99 890.90 510.41 L 887.00 517.32 C 886.94 517.42 886.88 517.51 886.81 517.60 C 886.74 517.69 886.67 517.78 886.59 517.86 C 886.51 517.94 886.43 518.02 886.34 518.09 C 886.25 518.16 886.16 518.22 886.06 518.28 C 885.96 518.34 885.86 518.39 885.76 518.43 C 885.66 518.47 885.55 518.51 885.44 518.54 C 885.33 518.57 885.22 518.59 885.11 518.61 C 885.00 518.62 884.88 518.63 884.77 518.63 C 884.66 518.63 884.54 518.62 884.43 518.61 C 884.32 518.60 884.21 518.57 884.10 518.54 C 883.99 518.51 883.88 518.47 883.78 518.43 C 883.68 518.39 883.57 518.34 883.48 518.28 C 883.38 518.22 883.29 518.16 883.20 518.09 C 883.11 518.02 883.03 517.95 882.95 517.86 C 882.87 517.78 882.80 517.69 882.73 517.60 C 882.66 517.51 882.60 517.41 882.54 517.32 L 878.64 510.41 C 878.41 509.99 878.08 509.67 877.66 509.43 L 870.75 505.53 C 870.65 505.47 870.56 505.41 870.47 505.34 C 870.38 505.27 870.29 505.20 870.21 505.12 C 870.13 505.04 870.05 504.96 869.98 504.87 C 869.91 504.78 869.85 504.69 869.79 504.59 C 869.73 504.49 869.68 504.39 869.64 504.29 C 869.60 504.19 869.56 504.08 869.53 503.97 C 869.50 503.86 869.48 503.75 869.46 503.64 C 869.45 503.53 869.44 503.41 869.44 503.30 C 869.44 503.19 869.45 503.07 869.46 502.96 C 869.48 502.85 869.50 502.74 869.53 502.63 C 869.56 502.52 869.60 502.41 869.64 502.31 C 869.68 502.21 869.73 502.10 869.79 502.01 C 869.85 501.91 869.91 501.82 869.98 501.73 C 870.05 501.64 870.12 501.56 870.21 501.48 C 870.29 501.40 870.38 501.33 870.47 501.26 C 870.56 501.19 870.66 501.13 870.75 501.07 L 877.66 497.17 C 878.08 496.94 878.40 496.61 878.64 496.19 L 882.54 489.28 C 882.60 489.18 882.66 489.09 882.73 489.00 C 882.80 488.91 882.87 488.82 882.95 488.74 C 883.03 488.66 883.11 488.58 883.20 488.51 C 883.29 488.44 883.38 488.38 883.48 488.32 C 883.58 488.26 883.68 488.21 883.78 488.17 C 883.88 488.13 883.99 488.09 884.10 488.06 C 884.21 488.03 884.32 488.01 884.43 487.99 C 884.54 487.98 884.66 487.97 884.77 487.97 C 884.88 487.97 885.00 487.98 885.11 487.99 C 885.22 488.00 885.33 488.03 885.44 488.06 C 885.55 488.09 885.66 488.13 885.76 488.17 C 885.86 488.21 885.97 488.26 886.06 488.32 C 886.16 488.38 886.25 488.44 886.34 488.51 C 886.43 488.58 886.51 488.65 886.59 488.74 C 886.67 488.82 886.74 488.91 886.81 489.00 C 886.88 489.09 886.94 489.19 887.00 489.28 L 890.90 496.19 Z"
                fill="#d8d8d8" fill-rule="nonzero" group-id="2,4" node-id="226" stroke="none"
                target-height="30.660004" target-width="30.660034" target-x="869.44"
                target-y="487.97" />
            <path
                d="M 890.90 496.19 C 891.13 496.61 891.46 496.93 891.88 497.17 L 898.79 501.07 C 898.89 501.13 898.98 501.19 899.07 501.26 C 899.16 501.33 899.25 501.40 899.33 501.48 C 899.41 501.56 899.49 501.64 899.56 501.73 C 899.63 501.82 899.69 501.91 899.75 502.01 C 899.81 502.11 899.86 502.21 899.90 502.31 C 899.94 502.41 899.98 502.52 900.01 502.63 C 900.04 502.74 900.06 502.85 900.08 502.96 C 900.09 503.07 900.10 503.19 900.10 503.30 C 900.10 503.41 900.09 503.53 900.08 503.64 C 900.06 503.75 900.04 503.86 900.01 503.97 C 899.98 504.08 899.94 504.19 899.90 504.29 C 899.86 504.39 899.81 504.50 899.75 504.59 C 899.69 504.69 899.63 504.78 899.56 504.87 C 899.49 504.96 899.42 505.04 899.33 505.12 C 899.25 505.20 899.16 505.27 899.07 505.34 C 898.98 505.41 898.88 505.47 898.79 505.53 L 891.88 509.43 C 891.46 509.66 891.14 509.99 890.90 510.41 L 887.00 517.32 C 886.94 517.42 886.88 517.51 886.81 517.60 C 886.74 517.69 886.67 517.78 886.59 517.86 C 886.51 517.94 886.43 518.02 886.34 518.09 C 886.25 518.16 886.16 518.22 886.06 518.28 C 885.96 518.34 885.86 518.39 885.76 518.43 C 885.66 518.47 885.55 518.51 885.44 518.54 C 885.33 518.57 885.22 518.59 885.11 518.61 C 885.00 518.62 884.88 518.63 884.77 518.63 C 884.66 518.63 884.54 518.62 884.43 518.61 C 884.32 518.60 884.21 518.57 884.10 518.54 C 883.99 518.51 883.88 518.47 883.78 518.43 C 883.68 518.39 883.57 518.34 883.48 518.28 C 883.38 518.22 883.29 518.16 883.20 518.09 C 883.11 518.02 883.03 517.95 882.95 517.86 C 882.87 517.78 882.80 517.69 882.73 517.60 C 882.66 517.51 882.60 517.41 882.54 517.32 L 878.64 510.41 C 878.41 509.99 878.08 509.67 877.66 509.43 L 870.75 505.53 C 870.65 505.47 870.56 505.41 870.47 505.34 C 870.38 505.27 870.29 505.20 870.21 505.12 C 870.13 505.04 870.05 504.96 869.98 504.87 C 869.91 504.78 869.85 504.69 869.79 504.59 C 869.73 504.49 869.68 504.39 869.64 504.29 C 869.60 504.19 869.56 504.08 869.53 503.97 C 869.50 503.86 869.48 503.75 869.46 503.64 C 869.45 503.53 869.44 503.41 869.44 503.30 C 869.44 503.19 869.45 503.07 869.46 502.96 C 869.48 502.85 869.50 502.74 869.53 502.63 C 869.56 502.52 869.60 502.41 869.64 502.31 C 869.68 502.21 869.73 502.10 869.79 502.01 C 869.85 501.91 869.91 501.82 869.98 501.73 C 870.05 501.64 870.12 501.56 870.21 501.48 C 870.29 501.40 870.38 501.33 870.47 501.26 C 870.56 501.19 870.66 501.13 870.75 501.07 L 877.66 497.17 C 878.08 496.94 878.40 496.61 878.64 496.19 L 882.54 489.28 C 882.60 489.18 882.66 489.09 882.73 489.00 C 882.80 488.91 882.87 488.82 882.95 488.74 C 883.03 488.66 883.11 488.58 883.20 488.51 C 883.29 488.44 883.38 488.38 883.48 488.32 C 883.58 488.26 883.68 488.21 883.78 488.17 C 883.88 488.13 883.99 488.09 884.10 488.06 C 884.21 488.03 884.32 488.01 884.43 487.99 C 884.54 487.98 884.66 487.97 884.77 487.97 C 884.88 487.97 885.00 487.98 885.11 487.99 C 885.22 488.00 885.33 488.03 885.44 488.06 C 885.55 488.09 885.66 488.13 885.76 488.17 C 885.86 488.21 885.97 488.26 886.06 488.32 C 886.16 488.38 886.25 488.44 886.34 488.51 C 886.43 488.58 886.51 488.65 886.59 488.74 C 886.67 488.82 886.74 488.91 886.81 489.00 C 886.88 489.09 886.94 489.19 887.00 489.28 L 890.90 496.19 Z"
                fill="url(#SVGID_3_)" fill-rule="nonzero" group-id="2,4" node-id="228" stroke="none"
                target-height="30.660004" target-width="30.660034" target-x="869.44"
                target-y="487.97" />
            <path
                d="M 890.90 496.19 C 891.13 496.61 891.46 496.93 891.88 497.17 L 898.79 501.07 C 898.89 501.13 898.98 501.19 899.07 501.26 C 899.16 501.33 899.25 501.40 899.33 501.48 C 899.41 501.56 899.49 501.64 899.56 501.73 C 899.63 501.82 899.69 501.91 899.75 502.01 C 899.81 502.11 899.86 502.21 899.90 502.31 C 899.94 502.41 899.98 502.52 900.01 502.63 C 900.04 502.74 900.06 502.85 900.08 502.96 C 900.09 503.07 900.10 503.19 900.10 503.30 C 900.10 503.41 900.09 503.53 900.08 503.64 C 900.06 503.75 900.04 503.86 900.01 503.97 C 899.98 504.08 899.94 504.19 899.90 504.29 C 899.86 504.39 899.81 504.50 899.75 504.59 C 899.69 504.69 899.63 504.78 899.56 504.87 C 899.49 504.96 899.42 505.04 899.33 505.12 C 899.25 505.20 899.16 505.27 899.07 505.34 C 898.98 505.41 898.88 505.47 898.79 505.53 L 891.88 509.43 C 891.46 509.66 891.14 509.99 890.90 510.41 L 887.00 517.32 C 886.94 517.42 886.88 517.51 886.81 517.60 C 886.74 517.69 886.67 517.78 886.59 517.86 C 886.51 517.94 886.43 518.02 886.34 518.09 C 886.25 518.16 886.16 518.22 886.06 518.28 C 885.96 518.34 885.86 518.39 885.76 518.43 C 885.66 518.47 885.55 518.51 885.44 518.54 C 885.33 518.57 885.22 518.59 885.11 518.61 C 885.00 518.62 884.88 518.63 884.77 518.63 C 884.66 518.63 884.54 518.62 884.43 518.61 C 884.32 518.60 884.21 518.57 884.10 518.54 C 883.99 518.51 883.88 518.47 883.78 518.43 C 883.68 518.39 883.57 518.34 883.48 518.28 C 883.38 518.22 883.29 518.16 883.20 518.09 C 883.11 518.02 883.03 517.95 882.95 517.86 C 882.87 517.78 882.80 517.69 882.73 517.60 C 882.66 517.51 882.60 517.41 882.54 517.32 L 878.64 510.41 C 878.41 509.99 878.08 509.67 877.66 509.43 L 870.75 505.53 C 870.65 505.47 870.56 505.41 870.47 505.34 C 870.38 505.27 870.29 505.20 870.21 505.12 C 870.13 505.04 870.05 504.96 869.98 504.87 C 869.91 504.78 869.85 504.69 869.79 504.59 C 869.73 504.49 869.68 504.39 869.64 504.29 C 869.60 504.19 869.56 504.08 869.53 503.97 C 869.50 503.86 869.48 503.75 869.46 503.64 C 869.45 503.53 869.44 503.41 869.44 503.30 C 869.44 503.19 869.45 503.07 869.46 502.96 C 869.48 502.85 869.50 502.74 869.53 502.63 C 869.56 502.52 869.60 502.41 869.64 502.31 C 869.68 502.21 869.73 502.10 869.79 502.01 C 869.85 501.91 869.91 501.82 869.98 501.73 C 870.05 501.64 870.12 501.56 870.21 501.48 C 870.29 501.40 870.38 501.33 870.47 501.26 C 870.56 501.19 870.66 501.13 870.75 501.07 L 877.66 497.17 C 878.08 496.94 878.40 496.61 878.64 496.19 L 882.54 489.28 C 882.60 489.18 882.66 489.09 882.73 489.00 C 882.80 488.91 882.87 488.82 882.95 488.74 C 883.03 488.66 883.11 488.58 883.20 488.51 C 883.29 488.44 883.38 488.38 883.48 488.32 C 883.58 488.26 883.68 488.21 883.78 488.17 C 883.88 488.13 883.99 488.09 884.10 488.06 C 884.21 488.03 884.32 488.01 884.43 487.99 C 884.54 487.98 884.66 487.97 884.77 487.97 C 884.88 487.97 885.00 487.98 885.11 487.99 C 885.22 488.00 885.33 488.03 885.44 488.06 C 885.55 488.09 885.66 488.13 885.76 488.17 C 885.86 488.21 885.97 488.26 886.06 488.32 C 886.16 488.38 886.25 488.44 886.34 488.51 C 886.43 488.58 886.51 488.65 886.59 488.74 C 886.67 488.82 886.74 488.91 886.81 489.00 C 886.88 489.09 886.94 489.19 887.00 489.28 L 890.90 496.19 Z"
                fill="url(#SVGID_4_)" fill-rule="nonzero" group-id="2,4" node-id="230" stroke="none"
                target-height="30.660004" target-width="30.660034" target-x="869.44"
                target-y="487.97" />
        </g>
        <g node-id="292">
            <path
                d="M 135.09 439.63 C 135.32 440.05 135.65 440.37 136.07 440.61 L 142.98 444.51 C 143.08 444.57 143.17 444.63 143.26 444.70 C 143.35 444.77 143.44 444.84 143.52 444.92 C 143.60 445.00 143.68 445.08 143.75 445.17 C 143.82 445.26 143.88 445.35 143.94 445.45 C 144.00 445.55 144.05 445.65 144.09 445.75 C 144.13 445.85 144.17 445.96 144.20 446.07 C 144.23 446.18 144.25 446.29 144.27 446.40 C 144.28 446.51 144.29 446.63 144.29 446.74 C 144.29 446.85 144.28 446.97 144.27 447.08 C 144.26 447.19 144.23 447.30 144.20 447.41 C 144.17 447.52 144.13 447.63 144.09 447.73 C 144.05 447.83 144.00 447.94 143.94 448.03 C 143.88 448.13 143.82 448.22 143.75 448.31 C 143.68 448.40 143.61 448.48 143.52 448.56 C 143.43 448.64 143.35 448.71 143.26 448.78 C 143.17 448.85 143.07 448.91 142.98 448.97 L 136.07 452.87 C 135.65 453.10 135.33 453.43 135.09 453.85 L 131.19 460.76 C 131.13 460.86 131.07 460.95 131.00 461.04 C 130.93 461.13 130.86 461.22 130.78 461.30 C 130.70 461.38 130.62 461.46 130.53 461.53 C 130.44 461.60 130.35 461.66 130.25 461.72 C 130.15 461.78 130.05 461.83 129.95 461.87 C 129.85 461.91 129.74 461.95 129.63 461.98 C 129.52 462.01 129.41 462.03 129.30 462.05 C 129.19 462.06 129.07 462.07 128.96 462.07 C 128.85 462.07 128.73 462.06 128.62 462.05 C 128.51 462.04 128.40 462.01 128.29 461.98 C 128.18 461.95 128.07 461.91 127.97 461.87 C 127.87 461.83 127.76 461.78 127.67 461.72 C 127.57 461.66 127.48 461.60 127.39 461.53 C 127.30 461.46 127.22 461.39 127.14 461.30 C 127.06 461.22 126.99 461.13 126.92 461.04 C 126.85 460.95 126.79 460.85 126.73 460.76 L 122.83 453.85 C 122.60 453.43 122.27 453.11 121.85 452.87 L 114.94 448.97 C 114.84 448.91 114.75 448.85 114.66 448.78 C 114.57 448.71 114.48 448.64 114.40 448.56 C 114.32 448.48 114.24 448.40 114.17 448.31 C 114.10 448.22 114.04 448.13 113.98 448.03 C 113.92 447.93 113.87 447.83 113.83 447.73 C 113.79 447.63 113.75 447.52 113.72 447.41 C 113.69 447.30 113.67 447.19 113.65 447.08 C 113.64 446.97 113.63 446.85 113.63 446.74 C 113.63 446.63 113.64 446.51 113.65 446.40 C 113.66 446.29 113.69 446.18 113.72 446.07 C 113.75 445.96 113.79 445.85 113.83 445.75 C 113.87 445.65 113.92 445.54 113.98 445.45 C 114.04 445.35 114.10 445.26 114.17 445.17 C 114.24 445.08 114.31 445.00 114.40 444.92 C 114.48 444.84 114.57 444.77 114.66 444.70 C 114.75 444.63 114.85 444.57 114.94 444.51 L 121.85 440.61 C 122.27 440.38 122.59 440.05 122.83 439.63 L 126.73 432.72 C 126.79 432.62 126.85 432.53 126.92 432.44 C 126.99 432.35 127.06 432.26 127.14 432.18 C 127.22 432.10 127.30 432.02 127.39 431.95 C 127.48 431.88 127.57 431.82 127.67 431.76 C 127.77 431.70 127.87 431.65 127.97 431.61 C 128.07 431.57 128.18 431.53 128.29 431.50 C 128.40 431.47 128.51 431.45 128.62 431.43 C 128.73 431.42 128.85 431.41 128.96 431.41 C 129.07 431.41 129.19 431.42 129.30 431.43 C 129.41 431.44 129.52 431.47 129.63 431.50 C 129.74 431.53 129.85 431.57 129.95 431.61 C 130.05 431.65 130.16 431.70 130.25 431.76 C 130.35 431.82 130.44 431.88 130.53 431.95 C 130.62 432.02 130.70 432.09 130.78 432.18 C 130.86 432.27 130.93 432.35 131.00 432.44 C 131.07 432.53 131.13 432.63 131.19 432.72 L 135.09 439.63 Z"
                fill="#d8d8d8" fill-rule="nonzero" group-id="2,5" node-id="235" stroke="none"
                target-height="30.660004" target-width="30.660004" target-x="113.62999"
                target-y="431.41" />
            <path
                d="M 135.09 439.63 C 135.32 440.05 135.65 440.37 136.07 440.61 L 142.98 444.51 C 143.08 444.57 143.17 444.63 143.26 444.70 C 143.35 444.77 143.44 444.84 143.52 444.92 C 143.60 445.00 143.68 445.08 143.75 445.17 C 143.82 445.26 143.88 445.35 143.94 445.45 C 144.00 445.55 144.05 445.65 144.09 445.75 C 144.13 445.85 144.17 445.96 144.20 446.07 C 144.23 446.18 144.25 446.29 144.27 446.40 C 144.28 446.51 144.29 446.63 144.29 446.74 C 144.29 446.85 144.28 446.97 144.27 447.08 C 144.26 447.19 144.23 447.30 144.20 447.41 C 144.17 447.52 144.13 447.63 144.09 447.73 C 144.05 447.83 144.00 447.94 143.94 448.03 C 143.88 448.13 143.82 448.22 143.75 448.31 C 143.68 448.40 143.61 448.48 143.52 448.56 C 143.43 448.64 143.35 448.71 143.26 448.78 C 143.17 448.85 143.07 448.91 142.98 448.97 L 136.07 452.87 C 135.65 453.10 135.33 453.43 135.09 453.85 L 131.19 460.76 C 131.13 460.86 131.07 460.95 131.00 461.04 C 130.93 461.13 130.86 461.22 130.78 461.30 C 130.70 461.38 130.62 461.46 130.53 461.53 C 130.44 461.60 130.35 461.66 130.25 461.72 C 130.15 461.78 130.05 461.83 129.95 461.87 C 129.85 461.91 129.74 461.95 129.63 461.98 C 129.52 462.01 129.41 462.03 129.30 462.05 C 129.19 462.06 129.07 462.07 128.96 462.07 C 128.85 462.07 128.73 462.06 128.62 462.05 C 128.51 462.04 128.40 462.01 128.29 461.98 C 128.18 461.95 128.07 461.91 127.97 461.87 C 127.87 461.83 127.76 461.78 127.67 461.72 C 127.57 461.66 127.48 461.60 127.39 461.53 C 127.30 461.46 127.22 461.39 127.14 461.30 C 127.06 461.22 126.99 461.13 126.92 461.04 C 126.85 460.95 126.79 460.85 126.73 460.76 L 122.83 453.85 C 122.60 453.43 122.27 453.11 121.85 452.87 L 114.94 448.97 C 114.84 448.91 114.75 448.85 114.66 448.78 C 114.57 448.71 114.48 448.64 114.40 448.56 C 114.32 448.48 114.24 448.40 114.17 448.31 C 114.10 448.22 114.04 448.13 113.98 448.03 C 113.92 447.93 113.87 447.83 113.83 447.73 C 113.79 447.63 113.75 447.52 113.72 447.41 C 113.69 447.30 113.67 447.19 113.65 447.08 C 113.64 446.97 113.63 446.85 113.63 446.74 C 113.63 446.63 113.64 446.51 113.65 446.40 C 113.66 446.29 113.69 446.18 113.72 446.07 C 113.75 445.96 113.79 445.85 113.83 445.75 C 113.87 445.65 113.92 445.54 113.98 445.45 C 114.04 445.35 114.10 445.26 114.17 445.17 C 114.24 445.08 114.31 445.00 114.40 444.92 C 114.48 444.84 114.57 444.77 114.66 444.70 C 114.75 444.63 114.85 444.57 114.94 444.51 L 121.85 440.61 C 122.27 440.38 122.59 440.05 122.83 439.63 L 126.73 432.72 C 126.79 432.62 126.85 432.53 126.92 432.44 C 126.99 432.35 127.06 432.26 127.14 432.18 C 127.22 432.10 127.30 432.02 127.39 431.95 C 127.48 431.88 127.57 431.82 127.67 431.76 C 127.77 431.70 127.87 431.65 127.97 431.61 C 128.07 431.57 128.18 431.53 128.29 431.50 C 128.40 431.47 128.51 431.45 128.62 431.43 C 128.73 431.42 128.85 431.41 128.96 431.41 C 129.07 431.41 129.19 431.42 129.30 431.43 C 129.41 431.44 129.52 431.47 129.63 431.50 C 129.74 431.53 129.85 431.57 129.95 431.61 C 130.05 431.65 130.16 431.70 130.25 431.76 C 130.35 431.82 130.44 431.88 130.53 431.95 C 130.62 432.02 130.70 432.09 130.78 432.18 C 130.86 432.27 130.93 432.35 131.00 432.44 C 131.07 432.53 131.13 432.63 131.19 432.72 L 135.09 439.63 Z"
                fill="url(#SVGID_5_)" fill-rule="nonzero" group-id="2,5" node-id="237" stroke="none"
                target-height="30.660004" target-width="30.660004" target-x="113.62999"
                target-y="431.41" />
            <path
                d="M 135.09 439.63 C 135.32 440.05 135.65 440.37 136.07 440.61 L 142.98 444.51 C 143.08 444.57 143.17 444.63 143.26 444.70 C 143.35 444.77 143.44 444.84 143.52 444.92 C 143.60 445.00 143.68 445.08 143.75 445.17 C 143.82 445.26 143.88 445.35 143.94 445.45 C 144.00 445.55 144.05 445.65 144.09 445.75 C 144.13 445.85 144.17 445.96 144.20 446.07 C 144.23 446.18 144.25 446.29 144.27 446.40 C 144.28 446.51 144.29 446.63 144.29 446.74 C 144.29 446.85 144.28 446.97 144.27 447.08 C 144.26 447.19 144.23 447.30 144.20 447.41 C 144.17 447.52 144.13 447.63 144.09 447.73 C 144.05 447.83 144.00 447.94 143.94 448.03 C 143.88 448.13 143.82 448.22 143.75 448.31 C 143.68 448.40 143.61 448.48 143.52 448.56 C 143.43 448.64 143.35 448.71 143.26 448.78 C 143.17 448.85 143.07 448.91 142.98 448.97 L 136.07 452.87 C 135.65 453.10 135.33 453.43 135.09 453.85 L 131.19 460.76 C 131.13 460.86 131.07 460.95 131.00 461.04 C 130.93 461.13 130.86 461.22 130.78 461.30 C 130.70 461.38 130.62 461.46 130.53 461.53 C 130.44 461.60 130.35 461.66 130.25 461.72 C 130.15 461.78 130.05 461.83 129.95 461.87 C 129.85 461.91 129.74 461.95 129.63 461.98 C 129.52 462.01 129.41 462.03 129.30 462.05 C 129.19 462.06 129.07 462.07 128.96 462.07 C 128.85 462.07 128.73 462.06 128.62 462.05 C 128.51 462.04 128.40 462.01 128.29 461.98 C 128.18 461.95 128.07 461.91 127.97 461.87 C 127.87 461.83 127.76 461.78 127.67 461.72 C 127.57 461.66 127.48 461.60 127.39 461.53 C 127.30 461.46 127.22 461.39 127.14 461.30 C 127.06 461.22 126.99 461.13 126.92 461.04 C 126.85 460.95 126.79 460.85 126.73 460.76 L 122.83 453.85 C 122.60 453.43 122.27 453.11 121.85 452.87 L 114.94 448.97 C 114.84 448.91 114.75 448.85 114.66 448.78 C 114.57 448.71 114.48 448.64 114.40 448.56 C 114.32 448.48 114.24 448.40 114.17 448.31 C 114.10 448.22 114.04 448.13 113.98 448.03 C 113.92 447.93 113.87 447.83 113.83 447.73 C 113.79 447.63 113.75 447.52 113.72 447.41 C 113.69 447.30 113.67 447.19 113.65 447.08 C 113.64 446.97 113.63 446.85 113.63 446.74 C 113.63 446.63 113.64 446.51 113.65 446.40 C 113.66 446.29 113.69 446.18 113.72 446.07 C 113.75 445.96 113.79 445.85 113.83 445.75 C 113.87 445.65 113.92 445.54 113.98 445.45 C 114.04 445.35 114.10 445.26 114.17 445.17 C 114.24 445.08 114.31 445.00 114.40 444.92 C 114.48 444.84 114.57 444.77 114.66 444.70 C 114.75 444.63 114.85 444.57 114.94 444.51 L 121.85 440.61 C 122.27 440.38 122.59 440.05 122.83 439.63 L 126.73 432.72 C 126.79 432.62 126.85 432.53 126.92 432.44 C 126.99 432.35 127.06 432.26 127.14 432.18 C 127.22 432.10 127.30 432.02 127.39 431.95 C 127.48 431.88 127.57 431.82 127.67 431.76 C 127.77 431.70 127.87 431.65 127.97 431.61 C 128.07 431.57 128.18 431.53 128.29 431.50 C 128.40 431.47 128.51 431.45 128.62 431.43 C 128.73 431.42 128.85 431.41 128.96 431.41 C 129.07 431.41 129.19 431.42 129.30 431.43 C 129.41 431.44 129.52 431.47 129.63 431.50 C 129.74 431.53 129.85 431.57 129.95 431.61 C 130.05 431.65 130.16 431.70 130.25 431.76 C 130.35 431.82 130.44 431.88 130.53 431.95 C 130.62 432.02 130.70 432.09 130.78 432.18 C 130.86 432.27 130.93 432.35 131.00 432.44 C 131.07 432.53 131.13 432.63 131.19 432.72 L 135.09 439.63 Z"
                fill="url(#SVGID_6_)" fill-rule="nonzero" group-id="2,5" node-id="239" stroke="none"
                target-height="30.660004" target-width="30.660004" target-x="113.62999"
                target-y="431.41" />
        </g>
        <g node-id="293">
            <path
                d="M 615.11 237.26 C 615.34 237.68 615.67 238.00 616.09 238.24 L 626.29 243.99 C 626.39 244.05 626.48 244.11 626.57 244.18 C 626.66 244.25 626.75 244.32 626.83 244.40 C 626.91 244.48 626.99 244.56 627.06 244.65 C 627.13 244.74 627.19 244.83 627.25 244.93 C 627.31 245.03 627.36 245.13 627.40 245.23 C 627.44 245.33 627.48 245.44 627.51 245.55 C 627.54 245.66 627.56 245.77 627.58 245.88 C 627.59 245.99 627.60 246.11 627.60 246.22 C 627.60 246.33 627.59 246.45 627.58 246.56 C 627.57 246.67 627.54 246.78 627.51 246.89 C 627.48 247.00 627.44 247.11 627.40 247.21 C 627.36 247.31 627.31 247.42 627.25 247.51 C 627.19 247.61 627.13 247.70 627.06 247.79 C 626.99 247.88 626.92 247.96 626.83 248.04 C 626.74 248.12 626.66 248.19 626.57 248.26 C 626.48 248.33 626.38 248.39 626.29 248.45 L 616.09 254.20 C 615.67 254.43 615.35 254.76 615.11 255.18 L 609.36 265.38 C 609.30 265.48 609.24 265.57 609.17 265.66 C 609.10 265.75 609.03 265.84 608.95 265.92 C 608.87 266.00 608.79 266.08 608.70 266.15 C 608.61 266.22 608.52 266.28 608.42 266.34 C 608.32 266.40 608.22 266.45 608.12 266.49 C 608.02 266.53 607.91 266.57 607.80 266.60 C 607.69 266.63 607.58 266.65 607.47 266.67 C 607.36 266.68 607.24 266.69 607.13 266.69 C 607.02 266.69 606.90 266.68 606.79 266.67 C 606.68 266.66 606.57 266.63 606.46 266.60 C 606.35 266.57 606.24 266.53 606.14 266.49 C 606.04 266.45 605.93 266.40 605.84 266.34 C 605.74 266.28 605.65 266.22 605.56 266.15 C 605.47 266.08 605.39 266.01 605.31 265.92 C 605.23 265.84 605.16 265.75 605.09 265.66 C 605.02 265.57 604.96 265.47 604.90 265.38 L 599.15 255.18 C 598.92 254.76 598.59 254.44 598.17 254.20 L 587.97 248.45 C 587.87 248.39 587.78 248.33 587.69 248.26 C 587.60 248.19 587.51 248.12 587.43 248.04 C 587.35 247.96 587.27 247.88 587.20 247.79 C 587.13 247.70 587.07 247.61 587.01 247.51 C 586.95 247.41 586.90 247.31 586.86 247.21 C 586.82 247.11 586.78 247.00 586.75 246.89 C 586.72 246.78 586.70 246.67 586.68 246.56 C 586.67 246.45 586.66 246.33 586.66 246.22 C 586.66 246.11 586.67 245.99 586.68 245.88 C 586.69 245.77 586.72 245.66 586.75 245.55 C 586.78 245.44 586.82 245.33 586.86 245.23 C 586.90 245.13 586.95 245.02 587.01 244.93 C 587.07 244.83 587.13 244.74 587.20 244.65 C 587.27 244.56 587.34 244.48 587.43 244.40 C 587.51 244.32 587.60 244.25 587.69 244.18 C 587.78 244.11 587.88 244.05 587.97 243.99 L 598.17 238.24 C 598.59 238.01 598.91 237.68 599.15 237.26 L 604.90 227.06 C 604.96 226.96 605.02 226.87 605.09 226.78 C 605.16 226.69 605.23 226.60 605.31 226.52 C 605.39 226.44 605.47 226.36 605.56 226.29 C 605.65 226.22 605.74 226.16 605.84 226.10 C 605.94 226.04 606.04 225.99 606.14 225.95 C 606.24 225.91 606.35 225.87 606.46 225.84 C 606.57 225.81 606.68 225.79 606.79 225.77 C 606.90 225.76 607.02 225.75 607.13 225.75 C 607.24 225.75 607.36 225.76 607.47 225.77 C 607.58 225.78 607.69 225.81 607.80 225.84 C 607.91 225.87 608.02 225.91 608.12 225.95 C 608.22 225.99 608.33 226.04 608.42 226.10 C 608.52 226.16 608.61 226.22 608.70 226.29 C 608.79 226.36 608.87 226.43 608.95 226.52 C 609.03 226.60 609.10 226.69 609.17 226.78 C 609.24 226.87 609.30 226.97 609.36 227.06 L 615.11 237.26 Z"
                fill="#d8d8d8" fill-rule="nonzero" group-id="2,6" node-id="244" stroke="none"
                target-height="40.940002" target-width="40.940002" target-x="586.66"
                target-y="225.75" />
            <path
                d="M 615.11 237.26 C 615.34 237.68 615.67 238.00 616.09 238.24 L 626.29 243.99 C 626.39 244.05 626.48 244.11 626.57 244.18 C 626.66 244.25 626.75 244.32 626.83 244.40 C 626.91 244.48 626.99 244.56 627.06 244.65 C 627.13 244.74 627.19 244.83 627.25 244.93 C 627.31 245.03 627.36 245.13 627.40 245.23 C 627.44 245.33 627.48 245.44 627.51 245.55 C 627.54 245.66 627.56 245.77 627.58 245.88 C 627.59 245.99 627.60 246.11 627.60 246.22 C 627.60 246.33 627.59 246.45 627.58 246.56 C 627.57 246.67 627.54 246.78 627.51 246.89 C 627.48 247.00 627.44 247.11 627.40 247.21 C 627.36 247.31 627.31 247.42 627.25 247.51 C 627.19 247.61 627.13 247.70 627.06 247.79 C 626.99 247.88 626.92 247.96 626.83 248.04 C 626.74 248.12 626.66 248.19 626.57 248.26 C 626.48 248.33 626.38 248.39 626.29 248.45 L 616.09 254.20 C 615.67 254.43 615.35 254.76 615.11 255.18 L 609.36 265.38 C 609.30 265.48 609.24 265.57 609.17 265.66 C 609.10 265.75 609.03 265.84 608.95 265.92 C 608.87 266.00 608.79 266.08 608.70 266.15 C 608.61 266.22 608.52 266.28 608.42 266.34 C 608.32 266.40 608.22 266.45 608.12 266.49 C 608.02 266.53 607.91 266.57 607.80 266.60 C 607.69 266.63 607.58 266.65 607.47 266.67 C 607.36 266.68 607.24 266.69 607.13 266.69 C 607.02 266.69 606.90 266.68 606.79 266.67 C 606.68 266.66 606.57 266.63 606.46 266.60 C 606.35 266.57 606.24 266.53 606.14 266.49 C 606.04 266.45 605.93 266.40 605.84 266.34 C 605.74 266.28 605.65 266.22 605.56 266.15 C 605.47 266.08 605.39 266.01 605.31 265.92 C 605.23 265.84 605.16 265.75 605.09 265.66 C 605.02 265.57 604.96 265.47 604.90 265.38 L 599.15 255.18 C 598.92 254.76 598.59 254.44 598.17 254.20 L 587.97 248.45 C 587.87 248.39 587.78 248.33 587.69 248.26 C 587.60 248.19 587.51 248.12 587.43 248.04 C 587.35 247.96 587.27 247.88 587.20 247.79 C 587.13 247.70 587.07 247.61 587.01 247.51 C 586.95 247.41 586.90 247.31 586.86 247.21 C 586.82 247.11 586.78 247.00 586.75 246.89 C 586.72 246.78 586.70 246.67 586.68 246.56 C 586.67 246.45 586.66 246.33 586.66 246.22 C 586.66 246.11 586.67 245.99 586.68 245.88 C 586.69 245.77 586.72 245.66 586.75 245.55 C 586.78 245.44 586.82 245.33 586.86 245.23 C 586.90 245.13 586.95 245.02 587.01 244.93 C 587.07 244.83 587.13 244.74 587.20 244.65 C 587.27 244.56 587.34 244.48 587.43 244.40 C 587.51 244.32 587.60 244.25 587.69 244.18 C 587.78 244.11 587.88 244.05 587.97 243.99 L 598.17 238.24 C 598.59 238.01 598.91 237.68 599.15 237.26 L 604.90 227.06 C 604.96 226.96 605.02 226.87 605.09 226.78 C 605.16 226.69 605.23 226.60 605.31 226.52 C 605.39 226.44 605.47 226.36 605.56 226.29 C 605.65 226.22 605.74 226.16 605.84 226.10 C 605.94 226.04 606.04 225.99 606.14 225.95 C 606.24 225.91 606.35 225.87 606.46 225.84 C 606.57 225.81 606.68 225.79 606.79 225.77 C 606.90 225.76 607.02 225.75 607.13 225.75 C 607.24 225.75 607.36 225.76 607.47 225.77 C 607.58 225.78 607.69 225.81 607.80 225.84 C 607.91 225.87 608.02 225.91 608.12 225.95 C 608.22 225.99 608.33 226.04 608.42 226.10 C 608.52 226.16 608.61 226.22 608.70 226.29 C 608.79 226.36 608.87 226.43 608.95 226.52 C 609.03 226.60 609.10 226.69 609.17 226.78 C 609.24 226.87 609.30 226.97 609.36 227.06 L 615.11 237.26 Z"
                fill="url(#SVGID_7_)" fill-rule="nonzero" group-id="2,6" node-id="246" stroke="none"
                target-height="40.940002" target-width="40.940002" target-x="586.66"
                target-y="225.75" />
            <path
                d="M 615.11 237.26 C 615.34 237.68 615.67 238.00 616.09 238.24 L 626.29 243.99 C 626.39 244.05 626.48 244.11 626.57 244.18 C 626.66 244.25 626.75 244.32 626.83 244.40 C 626.91 244.48 626.99 244.56 627.06 244.65 C 627.13 244.74 627.19 244.83 627.25 244.93 C 627.31 245.03 627.36 245.13 627.40 245.23 C 627.44 245.33 627.48 245.44 627.51 245.55 C 627.54 245.66 627.56 245.77 627.58 245.88 C 627.59 245.99 627.60 246.11 627.60 246.22 C 627.60 246.33 627.59 246.45 627.58 246.56 C 627.57 246.67 627.54 246.78 627.51 246.89 C 627.48 247.00 627.44 247.11 627.40 247.21 C 627.36 247.31 627.31 247.42 627.25 247.51 C 627.19 247.61 627.13 247.70 627.06 247.79 C 626.99 247.88 626.92 247.96 626.83 248.04 C 626.74 248.12 626.66 248.19 626.57 248.26 C 626.48 248.33 626.38 248.39 626.29 248.45 L 616.09 254.20 C 615.67 254.43 615.35 254.76 615.11 255.18 L 609.36 265.38 C 609.30 265.48 609.24 265.57 609.17 265.66 C 609.10 265.75 609.03 265.84 608.95 265.92 C 608.87 266.00 608.79 266.08 608.70 266.15 C 608.61 266.22 608.52 266.28 608.42 266.34 C 608.32 266.40 608.22 266.45 608.12 266.49 C 608.02 266.53 607.91 266.57 607.80 266.60 C 607.69 266.63 607.58 266.65 607.47 266.67 C 607.36 266.68 607.24 266.69 607.13 266.69 C 607.02 266.69 606.90 266.68 606.79 266.67 C 606.68 266.66 606.57 266.63 606.46 266.60 C 606.35 266.57 606.24 266.53 606.14 266.49 C 606.04 266.45 605.93 266.40 605.84 266.34 C 605.74 266.28 605.65 266.22 605.56 266.15 C 605.47 266.08 605.39 266.01 605.31 265.92 C 605.23 265.84 605.16 265.75 605.09 265.66 C 605.02 265.57 604.96 265.47 604.90 265.38 L 599.15 255.18 C 598.92 254.76 598.59 254.44 598.17 254.20 L 587.97 248.45 C 587.87 248.39 587.78 248.33 587.69 248.26 C 587.60 248.19 587.51 248.12 587.43 248.04 C 587.35 247.96 587.27 247.88 587.20 247.79 C 587.13 247.70 587.07 247.61 587.01 247.51 C 586.95 247.41 586.90 247.31 586.86 247.21 C 586.82 247.11 586.78 247.00 586.75 246.89 C 586.72 246.78 586.70 246.67 586.68 246.56 C 586.67 246.45 586.66 246.33 586.66 246.22 C 586.66 246.11 586.67 245.99 586.68 245.88 C 586.69 245.77 586.72 245.66 586.75 245.55 C 586.78 245.44 586.82 245.33 586.86 245.23 C 586.90 245.13 586.95 245.02 587.01 244.93 C 587.07 244.83 587.13 244.74 587.20 244.65 C 587.27 244.56 587.34 244.48 587.43 244.40 C 587.51 244.32 587.60 244.25 587.69 244.18 C 587.78 244.11 587.88 244.05 587.97 243.99 L 598.17 238.24 C 598.59 238.01 598.91 237.68 599.15 237.26 L 604.90 227.06 C 604.96 226.96 605.02 226.87 605.09 226.78 C 605.16 226.69 605.23 226.60 605.31 226.52 C 605.39 226.44 605.47 226.36 605.56 226.29 C 605.65 226.22 605.74 226.16 605.84 226.10 C 605.94 226.04 606.04 225.99 606.14 225.95 C 606.24 225.91 606.35 225.87 606.46 225.84 C 606.57 225.81 606.68 225.79 606.79 225.77 C 606.90 225.76 607.02 225.75 607.13 225.75 C 607.24 225.75 607.36 225.76 607.47 225.77 C 607.58 225.78 607.69 225.81 607.80 225.84 C 607.91 225.87 608.02 225.91 608.12 225.95 C 608.22 225.99 608.33 226.04 608.42 226.10 C 608.52 226.16 608.61 226.22 608.70 226.29 C 608.79 226.36 608.87 226.43 608.95 226.52 C 609.03 226.60 609.10 226.69 609.17 226.78 C 609.24 226.87 609.30 226.97 609.36 227.06 L 615.11 237.26 Z"
                fill="url(#SVGID_8_)" fill-rule="nonzero" group-id="2,6" node-id="248" stroke="none"
                target-height="40.940002" target-width="40.940002" target-x="586.66"
                target-y="225.75" />
        </g>
        <g node-id="294">
            <g node-id="297">
                <path
                    d="M 208.54 371.45 L 433.34 346.40 C 353.71 317.27 306.09 302.70 290.47 302.70 C 258.88 303.37 231.57 326.28 208.54 371.45 Z"
                    fill="url(#SVGID_9_)" fill-rule="evenodd" group-id="2,7,10" node-id="255"
                    stroke="none" target-height="68.75" target-width="224.8" target-x="208.54"
                    target-y="302.7" />
                <path
                    d="M 208.54 371.45 L 433.34 346.40 C 353.71 317.27 306.09 302.70 290.47 302.70 C 258.88 303.37 231.57 326.28 208.54 371.45 Z"
                    fill="url(#SVGID_10_)" fill-rule="evenodd" group-id="2,7,10" node-id="257"
                    stroke="none" target-height="68.75" target-width="224.8" target-x="208.54"
                    target-y="302.7" />
            </g>
            <g node-id="298">
                <path
                    d="M 288.17 302.45 L 525.37 318.06 C 563.64 322.83 584.50 341.15 587.95 373.04 C 593.13 420.87 609.61 525.99 621.57 570.68 C 633.52 615.37 656.76 705.78 719.90 733.88 L 621.57 756.37 C 524.47 757.20 468.31 757.61 453.09 757.61 C 430.26 757.61 367.31 742.48 359.07 604.96 C 355.88 408.47 332.25 307.63 288.17 302.45 Z"
                    fill="url(#SVGID_11_)" fill-rule="evenodd" group-id="2,7,11" node-id="262"
                    stroke="none" target-height="455.15997" target-width="431.73" target-x="288.17"
                    target-y="302.45" />
                <path
                    d="M 288.17 302.45 L 525.37 318.06 C 563.64 322.83 584.50 341.15 587.95 373.04 C 593.13 420.87 609.61 525.99 621.57 570.68 C 633.52 615.37 656.76 705.78 719.90 733.88 L 621.57 756.37 C 524.47 757.20 468.31 757.61 453.09 757.61 C 430.26 757.61 367.31 742.48 359.07 604.96 C 355.88 408.47 332.25 307.63 288.17 302.45 Z"
                    fill="url(#SVGID_12_)" fill-rule="evenodd" group-id="2,7,11" node-id="264"
                    stroke="none" target-height="455.15997" target-width="431.73" target-x="288.17"
                    target-y="302.45" />
            </g>
            <g node-id="299">
                <path
                    d="M 453.01 757.67 C 520.07 764.96 594.18 764.96 675.33 757.67 C 734.26 749.45 764.32 747.44 810.72 708.70 L 538.88 708.70 C 523.99 738.49 495.36 754.81 453.01 757.67 Z"
                    fill="url(#SVGID_13_)" fill-rule="evenodd" group-id="2,7,12" node-id="269"
                    stroke="none" target-height="56.26001" target-width="357.70996"
                    target-x="453.01" target-y="708.7" />
                <path
                    d="M 453.01 757.67 C 520.07 764.96 594.18 764.96 675.33 757.67 C 734.26 749.45 764.32 747.44 810.72 708.70 L 538.88 708.70 C 523.99 738.49 495.36 754.81 453.01 757.67 Z"
                    fill="url(#SVGID_14_)" fill-rule="evenodd" group-id="2,7,12" node-id="271"
                    stroke="none" target-height="56.26001" target-width="357.70996"
                    target-x="453.01" target-y="708.7" />
            </g>
        </g>
        <g node-id="295">
            <path
                d="M 574.70 512.67 C 580.43 512.57 583.80 512.52 584.83 512.52 C 585.00 512.52 585.17 512.50 585.33 512.47 C 585.49 512.44 585.66 512.39 585.81 512.32 C 585.97 512.26 586.11 512.18 586.25 512.08 C 586.39 511.99 586.52 511.88 586.64 511.76 C 586.76 511.64 586.87 511.51 586.96 511.37 C 587.05 511.23 587.13 511.08 587.20 510.93 C 587.26 510.77 587.31 510.61 587.35 510.45 C 587.38 510.28 587.40 510.12 587.40 509.95 C 587.40 509.78 587.38 509.61 587.35 509.45 C 587.32 509.28 587.27 509.12 587.20 508.97 C 587.14 508.81 587.06 508.67 586.96 508.53 C 586.87 508.39 586.76 508.26 586.64 508.14 C 586.52 508.02 586.39 507.91 586.25 507.82 C 586.11 507.73 585.96 507.65 585.81 507.58 C 585.65 507.52 585.49 507.47 585.33 507.43 C 585.16 507.40 585.00 507.38 584.83 507.38 C 583.77 507.38 580.36 507.43 574.61 507.53 C 542.62 508.09 517.44 508.22 499.07 507.91 C 483.69 507.65 471.80 507.12 463.38 506.30 C 458.65 505.84 455.08 505.30 452.68 504.69 C 451.97 504.51 451.38 504.32 450.93 504.14 C 453.25 502.11 465.08 497.05 486.44 488.96 C 502.68 482.81 513.98 478.24 520.36 475.25 C 525.59 472.79 529.58 470.57 532.33 468.57 C 536.00 465.91 537.84 463.32 537.84 460.80 C 537.84 457.27 534.41 454.84 527.55 453.52 C 521.92 452.43 513.56 451.89 502.46 451.89 C 480.50 451.89 447.61 454.01 403.79 458.25 L 403.79 458.25 C 403.63 458.27 403.48 458.29 403.33 458.34 C 403.18 458.38 403.03 458.44 402.89 458.51 C 402.75 458.58 402.61 458.66 402.49 458.76 C 402.36 458.86 402.25 458.96 402.14 459.08 C 402.03 459.20 401.94 459.32 401.86 459.46 C 401.78 459.59 401.71 459.74 401.65 459.88 C 401.59 460.03 401.55 460.18 401.52 460.34 C 401.49 460.50 401.48 460.65 401.48 460.81 C 401.48 460.98 401.50 461.15 401.53 461.31 C 401.56 461.48 401.61 461.64 401.68 461.79 C 401.74 461.95 401.82 462.09 401.92 462.23 C 402.01 462.37 402.12 462.50 402.24 462.62 C 402.36 462.74 402.49 462.85 402.63 462.94 C 402.77 463.03 402.92 463.11 403.07 463.18 C 403.23 463.24 403.39 463.29 403.55 463.33 C 403.72 463.36 403.88 463.38 404.05 463.38 C 404.13 463.38 404.22 463.38 404.30 463.37 C 447.96 459.15 480.69 457.04 502.48 457.04 C 513.25 457.04 521.29 457.55 526.60 458.58 C 529.05 459.05 530.83 459.61 531.95 460.26 C 532.33 460.48 532.58 460.68 532.71 460.85 L 532.72 460.81 C 532.72 461.58 531.59 462.78 529.34 464.42 C 526.85 466.22 523.14 468.29 518.20 470.61 C 511.94 473.55 500.76 478.07 484.64 484.17 C 471.78 489.04 463.02 492.52 458.34 494.62 C 454.53 496.33 451.64 497.84 449.66 499.14 C 446.81 501.01 445.39 502.89 445.39 504.76 C 445.39 507.00 447.40 508.64 451.42 509.68 C 454.08 510.37 457.91 510.95 462.91 511.43 C 471.46 512.26 483.49 512.80 499.01 513.06 C 517.41 513.36 542.65 513.23 574.70 512.67 Z"
                fill="url(#SVGID_15_)" fill-rule="evenodd" group-id="2,8" node-id="277"
                stroke="none" target-height="61.46997" target-width="185.92001" target-x="401.48"
                target-y="451.89" />
            <path
                d="M 574.70 512.67 C 580.43 512.57 583.80 512.52 584.83 512.52 C 585.00 512.52 585.17 512.50 585.33 512.47 C 585.49 512.44 585.66 512.39 585.81 512.32 C 585.97 512.26 586.11 512.18 586.25 512.08 C 586.39 511.99 586.52 511.88 586.64 511.76 C 586.76 511.64 586.87 511.51 586.96 511.37 C 587.05 511.23 587.13 511.08 587.20 510.93 C 587.26 510.77 587.31 510.61 587.35 510.45 C 587.38 510.28 587.40 510.12 587.40 509.95 C 587.40 509.78 587.38 509.61 587.35 509.45 C 587.32 509.28 587.27 509.12 587.20 508.97 C 587.14 508.81 587.06 508.67 586.96 508.53 C 586.87 508.39 586.76 508.26 586.64 508.14 C 586.52 508.02 586.39 507.91 586.25 507.82 C 586.11 507.73 585.96 507.65 585.81 507.58 C 585.65 507.52 585.49 507.47 585.33 507.43 C 585.16 507.40 585.00 507.38 584.83 507.38 C 583.77 507.38 580.36 507.43 574.61 507.53 C 542.62 508.09 517.44 508.22 499.07 507.91 C 483.69 507.65 471.80 507.12 463.38 506.30 C 458.65 505.84 455.08 505.30 452.68 504.69 C 451.97 504.51 451.38 504.32 450.93 504.14 C 453.25 502.11 465.08 497.05 486.44 488.96 C 502.68 482.81 513.98 478.24 520.36 475.25 C 525.59 472.79 529.58 470.57 532.33 468.57 C 536.00 465.91 537.84 463.32 537.84 460.80 C 537.84 457.27 534.41 454.84 527.55 453.52 C 521.92 452.43 513.56 451.89 502.46 451.89 C 480.50 451.89 447.61 454.01 403.79 458.25 L 403.79 458.25 C 403.63 458.27 403.48 458.29 403.33 458.34 C 403.18 458.38 403.03 458.44 402.89 458.51 C 402.75 458.58 402.61 458.66 402.49 458.76 C 402.36 458.86 402.25 458.96 402.14 459.08 C 402.03 459.20 401.94 459.32 401.86 459.46 C 401.78 459.59 401.71 459.74 401.65 459.88 C 401.59 460.03 401.55 460.18 401.52 460.34 C 401.49 460.50 401.48 460.65 401.48 460.81 C 401.48 460.98 401.50 461.15 401.53 461.31 C 401.56 461.48 401.61 461.64 401.68 461.79 C 401.74 461.95 401.82 462.09 401.92 462.23 C 402.01 462.37 402.12 462.50 402.24 462.62 C 402.36 462.74 402.49 462.85 402.63 462.94 C 402.77 463.03 402.92 463.11 403.07 463.18 C 403.23 463.24 403.39 463.29 403.55 463.33 C 403.72 463.36 403.88 463.38 404.05 463.38 C 404.13 463.38 404.22 463.38 404.30 463.37 C 447.96 459.15 480.69 457.04 502.48 457.04 C 513.25 457.04 521.29 457.55 526.60 458.58 C 529.05 459.05 530.83 459.61 531.95 460.26 C 532.33 460.48 532.58 460.68 532.71 460.85 L 532.72 460.81 C 532.72 461.58 531.59 462.78 529.34 464.42 C 526.85 466.22 523.14 468.29 518.20 470.61 C 511.94 473.55 500.76 478.07 484.64 484.17 C 471.78 489.04 463.02 492.52 458.34 494.62 C 454.53 496.33 451.64 497.84 449.66 499.14 C 446.81 501.01 445.39 502.89 445.39 504.76 C 445.39 507.00 447.40 508.64 451.42 509.68 C 454.08 510.37 457.91 510.95 462.91 511.43 C 471.46 512.26 483.49 512.80 499.01 513.06 C 517.41 513.36 542.65 513.23 574.70 512.67 Z"
                fill="url(#SVGID_16_)" fill-rule="evenodd" group-id="2,8" node-id="279"
                stroke="none" target-height="61.46997" target-width="185.92001" target-x="401.48"
                target-y="451.89" />
        </g>
        <g node-id="296">
            <path
                d="M 829.12 238.51 C 733.38 269.87 641.64 378.04 553.90 563.02 C 551.78 567.50 556.65 571.95 561.01 569.58 L 578.84 559.86 L 612.26 500.73 C 669.21 500.73 715.58 479.97 751.36 438.44 L 689.08 448.30 C 688.85 448.34 688.61 448.36 688.38 448.38 C 688.14 448.39 687.91 448.40 687.67 448.39 C 687.43 448.38 687.20 448.36 686.97 448.33 C 686.74 448.30 686.51 448.25 686.28 448.20 C 686.05 448.14 685.83 448.08 685.60 448.00 C 685.38 447.92 685.16 447.83 684.95 447.74 C 684.74 447.64 684.53 447.53 684.32 447.41 C 684.12 447.29 683.92 447.16 683.73 447.02 C 683.54 446.88 683.36 446.73 683.18 446.58 C 683.00 446.42 682.84 446.26 682.68 446.09 C 682.52 445.92 682.37 445.74 682.23 445.55 C 682.09 445.36 681.96 445.17 681.83 444.97 C 681.71 444.77 681.59 444.56 681.49 444.35 C 681.39 444.14 681.29 443.92 681.21 443.70 C 681.13 443.48 681.06 443.25 681.00 443.03 C 680.94 442.80 680.89 442.57 680.86 442.34 C 680.79 441.87 680.76 441.40 680.78 440.93 C 680.80 440.46 680.86 439.99 680.97 439.53 C 681.08 439.07 681.23 438.63 681.43 438.20 C 681.63 437.77 681.87 437.37 682.14 436.98 C 682.42 436.60 682.73 436.25 683.08 435.93 C 683.43 435.61 683.80 435.33 684.20 435.08 C 684.60 434.83 685.03 434.63 685.47 434.47 C 685.91 434.31 686.37 434.19 686.83 434.11 L 764.33 421.84 C 773.49 408.91 781.84 394.40 789.38 378.29 L 732.22 387.34 C 731.99 387.38 731.75 387.40 731.52 387.42 C 731.28 387.43 731.05 387.44 730.81 387.43 C 730.57 387.42 730.34 387.40 730.11 387.37 C 729.88 387.34 729.65 387.29 729.42 387.24 C 729.19 387.18 728.97 387.12 728.74 387.04 C 728.52 386.96 728.30 386.87 728.08 386.78 C 727.87 386.68 727.66 386.57 727.45 386.45 C 727.25 386.33 727.05 386.20 726.86 386.06 C 726.67 385.92 726.49 385.77 726.31 385.62 C 726.13 385.46 725.97 385.30 725.81 385.13 C 725.65 384.96 725.50 384.78 725.36 384.59 C 725.22 384.40 725.09 384.21 724.96 384.01 C 724.84 383.81 724.72 383.60 724.62 383.39 C 724.52 383.18 724.43 382.96 724.34 382.74 C 724.26 382.52 724.19 382.29 724.13 382.07 C 724.07 381.84 724.02 381.61 723.99 381.38 C 723.92 380.91 723.89 380.44 723.91 379.97 C 723.93 379.50 723.99 379.03 724.10 378.57 C 724.21 378.11 724.36 377.67 724.56 377.24 C 724.76 376.81 724.99 376.41 725.27 376.02 C 725.55 375.64 725.86 375.29 726.21 374.97 C 726.56 374.65 726.93 374.37 727.33 374.12 C 727.73 373.87 728.16 373.67 728.60 373.51 C 729.04 373.35 729.50 373.23 729.96 373.15 L 796.24 362.65 C 801.60 349.62 806.48 335.67 810.90 320.80 L 768.17 327.57 C 767.94 327.61 767.70 327.63 767.47 327.65 C 767.24 327.66 767.00 327.67 766.76 327.66 C 766.52 327.65 766.29 327.63 766.06 327.60 C 765.83 327.57 765.60 327.52 765.37 327.47 C 765.14 327.41 764.92 327.35 764.69 327.27 C 764.47 327.19 764.25 327.10 764.04 327.01 C 763.83 326.91 763.62 326.80 763.41 326.68 C 763.21 326.56 763.01 326.43 762.82 326.29 C 762.63 326.15 762.45 326.00 762.27 325.85 C 762.09 325.69 761.93 325.53 761.77 325.36 C 761.61 325.19 761.46 325.01 761.32 324.82 C 761.18 324.63 761.05 324.44 760.92 324.24 C 760.80 324.04 760.68 323.83 760.58 323.62 C 760.48 323.41 760.38 323.19 760.30 322.97 C 760.22 322.75 760.15 322.52 760.09 322.30 C 760.03 322.07 759.98 321.84 759.95 321.61 C 759.88 321.14 759.85 320.67 759.87 320.20 C 759.89 319.73 759.95 319.26 760.06 318.80 C 760.17 318.34 760.32 317.90 760.52 317.47 C 760.72 317.04 760.96 316.64 761.23 316.25 C 761.51 315.87 761.82 315.52 762.17 315.20 C 762.52 314.88 762.89 314.60 763.29 314.35 C 763.69 314.10 764.12 313.90 764.56 313.74 C 765.00 313.58 765.46 313.46 765.92 313.38 L 815.17 305.58 C 820.67 284.86 825.32 262.51 829.12 238.51 Z"
                fill="url(#SVGID_17_)" fill-rule="evenodd" group-id="2,9" node-id="284"
                stroke="none" target-height="333.44" target-width="277.33997" target-x="551.78"
                target-y="238.51" />
            <path
                d="M 829.12 238.51 C 733.38 269.87 641.64 378.04 553.90 563.02 C 551.78 567.50 556.65 571.95 561.01 569.58 L 578.84 559.86 L 612.26 500.73 C 669.21 500.73 715.58 479.97 751.36 438.44 L 689.08 448.30 C 688.85 448.34 688.61 448.36 688.38 448.38 C 688.14 448.39 687.91 448.40 687.67 448.39 C 687.43 448.38 687.20 448.36 686.97 448.33 C 686.74 448.30 686.51 448.25 686.28 448.20 C 686.05 448.14 685.83 448.08 685.60 448.00 C 685.38 447.92 685.16 447.83 684.95 447.74 C 684.74 447.64 684.53 447.53 684.32 447.41 C 684.12 447.29 683.92 447.16 683.73 447.02 C 683.54 446.88 683.36 446.73 683.18 446.58 C 683.00 446.42 682.84 446.26 682.68 446.09 C 682.52 445.92 682.37 445.74 682.23 445.55 C 682.09 445.36 681.96 445.17 681.83 444.97 C 681.71 444.77 681.59 444.56 681.49 444.35 C 681.39 444.14 681.29 443.92 681.21 443.70 C 681.13 443.48 681.06 443.25 681.00 443.03 C 680.94 442.80 680.89 442.57 680.86 442.34 C 680.79 441.87 680.76 441.40 680.78 440.93 C 680.80 440.46 680.86 439.99 680.97 439.53 C 681.08 439.07 681.23 438.63 681.43 438.20 C 681.63 437.77 681.87 437.37 682.14 436.98 C 682.42 436.60 682.73 436.25 683.08 435.93 C 683.43 435.61 683.80 435.33 684.20 435.08 C 684.60 434.83 685.03 434.63 685.47 434.47 C 685.91 434.31 686.37 434.19 686.83 434.11 L 764.33 421.84 C 773.49 408.91 781.84 394.40 789.38 378.29 L 732.22 387.34 C 731.99 387.38 731.75 387.40 731.52 387.42 C 731.28 387.43 731.05 387.44 730.81 387.43 C 730.57 387.42 730.34 387.40 730.11 387.37 C 729.88 387.34 729.65 387.29 729.42 387.24 C 729.19 387.18 728.97 387.12 728.74 387.04 C 728.52 386.96 728.30 386.87 728.08 386.78 C 727.87 386.68 727.66 386.57 727.45 386.45 C 727.25 386.33 727.05 386.20 726.86 386.06 C 726.67 385.92 726.49 385.77 726.31 385.62 C 726.13 385.46 725.97 385.30 725.81 385.13 C 725.65 384.96 725.50 384.78 725.36 384.59 C 725.22 384.40 725.09 384.21 724.96 384.01 C 724.84 383.81 724.72 383.60 724.62 383.39 C 724.52 383.18 724.43 382.96 724.34 382.74 C 724.26 382.52 724.19 382.29 724.13 382.07 C 724.07 381.84 724.02 381.61 723.99 381.38 C 723.92 380.91 723.89 380.44 723.91 379.97 C 723.93 379.50 723.99 379.03 724.10 378.57 C 724.21 378.11 724.36 377.67 724.56 377.24 C 724.76 376.81 724.99 376.41 725.27 376.02 C 725.55 375.64 725.86 375.29 726.21 374.97 C 726.56 374.65 726.93 374.37 727.33 374.12 C 727.73 373.87 728.16 373.67 728.60 373.51 C 729.04 373.35 729.50 373.23 729.96 373.15 L 796.24 362.65 C 801.60 349.62 806.48 335.67 810.90 320.80 L 768.17 327.57 C 767.94 327.61 767.70 327.63 767.47 327.65 C 767.24 327.66 767.00 327.67 766.76 327.66 C 766.52 327.65 766.29 327.63 766.06 327.60 C 765.83 327.57 765.60 327.52 765.37 327.47 C 765.14 327.41 764.92 327.35 764.69 327.27 C 764.47 327.19 764.25 327.10 764.04 327.01 C 763.83 326.91 763.62 326.80 763.41 326.68 C 763.21 326.56 763.01 326.43 762.82 326.29 C 762.63 326.15 762.45 326.00 762.27 325.85 C 762.09 325.69 761.93 325.53 761.77 325.36 C 761.61 325.19 761.46 325.01 761.32 324.82 C 761.18 324.63 761.05 324.44 760.92 324.24 C 760.80 324.04 760.68 323.83 760.58 323.62 C 760.48 323.41 760.38 323.19 760.30 322.97 C 760.22 322.75 760.15 322.52 760.09 322.30 C 760.03 322.07 759.98 321.84 759.95 321.61 C 759.88 321.14 759.85 320.67 759.87 320.20 C 759.89 319.73 759.95 319.26 760.06 318.80 C 760.17 318.34 760.32 317.90 760.52 317.47 C 760.72 317.04 760.96 316.64 761.23 316.25 C 761.51 315.87 761.82 315.52 762.17 315.20 C 762.52 314.88 762.89 314.60 763.29 314.35 C 763.69 314.10 764.12 313.90 764.56 313.74 C 765.00 313.58 765.46 313.46 765.92 313.38 L 815.17 305.58 C 820.67 284.86 825.32 262.51 829.12 238.51 Z"
                fill="url(#SVGID_18_)" fill-rule="evenodd" group-id="2,9" node-id="286"
                stroke="none" target-height="333.44" target-width="277.33997" target-x="551.78"
                target-y="238.51" />
        </g>
    </g>
</svg>